<svg width="40" height="31" viewBox="0 0 40 31" fill="none" xmlns="http://www.w3.org/2000/svg">
<path d="M19.1983 7.8957L6.76821 18.031V28.9699C6.76821 29.2531 6.88186 29.5247 7.08415 29.725C7.28645 29.9253 7.56083 30.0378 7.84692 30.0378L15.402 30.0184C15.6871 30.017 15.9601 29.9039 16.1612 29.7038C16.3624 29.5036 16.4753 29.2328 16.4753 28.9505V22.5623C16.4753 22.2791 16.5889 22.0075 16.7912 21.8072C16.9935 21.6069 17.2679 21.4944 17.554 21.4944H21.8688C22.1549 21.4944 22.4293 21.6069 22.6316 21.8072C22.8339 22.0075 22.9475 22.2791 22.9475 22.5623V28.9458C22.9471 29.0864 22.9747 29.2256 23.0287 29.3555C23.0827 29.4855 23.1621 29.6036 23.2623 29.7031C23.3625 29.8027 23.4816 29.8816 23.6127 29.9355C23.7438 29.9894 23.8843 30.0171 24.0263 30.0171L31.5786 30.0378C31.8647 30.0378 32.1391 29.9253 32.3414 29.725C32.5437 29.5247 32.6573 29.2531 32.6573 28.9699V18.0236L20.2299 7.8957C20.0838 7.77911 19.9018 7.71553 19.7141 7.71553C19.5264 7.71553 19.3444 7.77911 19.1983 7.8957ZM38.8329 14.7845L33.1967 10.1851V0.940165C33.1967 0.727742 33.1114 0.524019 32.9597 0.373812C32.808 0.223606 32.6022 0.139221 32.3876 0.139221H28.6121C28.3976 0.139221 28.1918 0.223606 28.0401 0.373812C27.8883 0.524019 27.8031 0.727742 27.8031 0.940165V5.78654L21.767 0.870083C21.1878 0.398179 20.4609 0.140165 19.7107 0.140165C18.9606 0.140165 18.2337 0.398179 17.6544 0.870083L0.588533 14.7845C0.50661 14.8515 0.438831 14.9339 0.38907 15.0269C0.339309 15.1198 0.308541 15.2216 0.298524 15.3264C0.288506 15.4311 0.299435 15.5368 0.330687 15.6374C0.361939 15.7379 0.412902 15.8314 0.480662 15.9125L2.19986 17.9816C2.26744 18.0629 2.35055 18.1303 2.44446 18.1798C2.53836 18.2293 2.6412 18.26 2.7471 18.2701C2.85299 18.2802 2.95986 18.2695 3.06159 18.2387C3.16331 18.2078 3.2579 18.1574 3.33992 18.0904L19.1983 5.15914C19.3444 5.04255 19.5264 4.97897 19.7141 4.97897C19.9018 4.97897 20.0838 5.04255 20.2299 5.15914L36.089 18.0904C36.1708 18.1575 36.2653 18.2079 36.3669 18.2389C36.4684 18.2698 36.5752 18.2806 36.681 18.2707C36.7868 18.2608 36.8896 18.2303 36.9835 18.1811C37.0774 18.1318 37.1606 18.0647 37.2284 17.9836L38.9475 15.9145C39.0152 15.8329 39.066 15.739 39.0969 15.638C39.1278 15.537 39.1382 15.4309 39.1275 15.3259C39.1169 15.2209 39.0854 15.119 39.0348 15.0261C38.9842 14.9332 38.9156 14.8511 38.8329 14.7845Z" fill="#2686CB"/>
</svg>
