<svg width="235" height="23" viewBox="0 0 235 23" fill="none" xmlns="http://www.w3.org/2000/svg">
<path d="M4.04297 10.7578L10.7227 13.1133V16.3945L0.632812 12.1172V9.35156L10.7227 5.07422V8.35547L4.04297 10.7578ZM216.609 19.4648H214.09L220.371 0.9375H222.891L216.609 19.4648ZM231.434 10.7227L224.625 8.34375V5.08594L234.832 9.36328V12.1172L224.625 16.4062V13.1367L231.434 10.7227Z" fill="#40E640"/>
<path d="M22.582 13.5234C22.582 12.8594 22.3477 12.3516 21.8789 12C21.4102 11.6406 20.5664 11.2656 19.3477 10.875C18.1289 10.4766 17.1641 10.0859 16.4531 9.70312C14.5156 8.65625 13.5469 7.24609 13.5469 5.47266C13.5469 4.55078 13.8047 3.73047 14.3203 3.01172C14.8438 2.28516 15.5898 1.71875 16.5586 1.3125C17.5352 0.90625 18.6289 0.703125 19.8398 0.703125C21.0586 0.703125 22.1445 0.925781 23.0977 1.37109C24.0508 1.80859 24.7891 2.42969 25.3125 3.23438C25.8438 4.03906 26.1094 4.95312 26.1094 5.97656H22.5938C22.5938 5.19531 22.3477 4.58984 21.8555 4.16016C21.3633 3.72266 20.6719 3.50391 19.7812 3.50391C18.9219 3.50391 18.2539 3.6875 17.7773 4.05469C17.3008 4.41406 17.0625 4.89062 17.0625 5.48438C17.0625 6.03906 17.3398 6.50391 17.8945 6.87891C18.457 7.25391 19.2812 7.60547 20.3672 7.93359C22.3672 8.53516 23.8242 9.28125 24.7383 10.1719C25.6523 11.0625 26.1094 12.1719 26.1094 13.5C26.1094 14.9766 25.5508 16.1367 24.4336 16.9805C23.3164 17.8164 21.8125 18.2344 19.9219 18.2344C18.6094 18.2344 17.4141 17.9961 16.3359 17.5195C15.2578 17.0352 14.4336 16.375 13.8633 15.5391C13.3008 14.7031 13.0195 13.7344 13.0195 12.6328H16.5469C16.5469 14.5156 17.6719 15.457 19.9219 15.457C20.7578 15.457 21.4102 15.2891 21.8789 14.9531C22.3477 14.6094 22.582 14.1328 22.582 13.5234ZM34.1133 18.2344C32.2539 18.2344 30.7383 17.6641 29.5664 16.5234C28.4023 15.3828 27.8203 13.8633 27.8203 11.9648V11.6367C27.8203 10.3633 28.0664 9.22656 28.5586 8.22656C29.0508 7.21875 29.7461 6.44531 30.6445 5.90625C31.5508 5.35938 32.582 5.08594 33.7383 5.08594C35.4727 5.08594 36.8359 5.63281 37.8281 6.72656C38.8281 7.82031 39.3281 9.37109 39.3281 11.3789V12.7617H31.2539C31.3633 13.5898 31.6914 14.2539 32.2383 14.7539C32.793 15.2539 33.4922 15.5039 34.3359 15.5039C35.6406 15.5039 36.6602 15.0312 37.3945 14.0859L39.0586 15.9492C38.5508 16.668 37.8633 17.2305 36.9961 17.6367C36.1289 18.0352 35.168 18.2344 34.1133 18.2344ZM33.7266 7.82812C33.0547 7.82812 32.5078 8.05469 32.0859 8.50781C31.6719 8.96094 31.4062 9.60938 31.2891 10.4531H36V10.1836C35.9844 9.43359 35.7812 8.85547 35.3906 8.44922C35 8.03516 34.4453 7.82812 33.7266 7.82812ZM48.6094 18C48.4531 17.6953 48.3398 17.3164 48.2695 16.8633C47.4492 17.7773 46.3828 18.2344 45.0703 18.2344C43.8281 18.2344 42.7969 17.875 41.9766 17.1562C41.1641 16.4375 40.7578 15.5312 40.7578 14.4375C40.7578 13.0938 41.2539 12.0625 42.2461 11.3438C43.2461 10.625 44.6875 10.2617 46.5703 10.2539H48.1289V9.52734C48.1289 8.94141 47.9766 8.47266 47.6719 8.12109C47.375 7.76953 46.9023 7.59375 46.2539 7.59375C45.6836 7.59375 45.2344 7.73047 44.9062 8.00391C44.5859 8.27734 44.4258 8.65234 44.4258 9.12891H41.0391C41.0391 8.39453 41.2656 7.71484 41.7188 7.08984C42.1719 6.46484 42.8125 5.97656 43.6406 5.625C44.4688 5.26562 45.3984 5.08594 46.4297 5.08594C47.9922 5.08594 49.2305 5.48047 50.1445 6.26953C51.0664 7.05078 51.5273 8.15234 51.5273 9.57422V15.0703C51.5352 16.2734 51.7031 17.1836 52.0312 17.8008V18H48.6094ZM45.8086 15.6445C46.3086 15.6445 46.7695 15.5352 47.1914 15.3164C47.6133 15.0898 47.9258 14.7891 48.1289 14.4141V12.2344H46.8633C45.168 12.2344 44.2656 12.8203 44.1562 13.9922L44.1445 14.1914C44.1445 14.6133 44.293 14.9609 44.5898 15.2344C44.8867 15.5078 45.293 15.6445 45.8086 15.6445ZM61.2539 8.49609C60.793 8.43359 60.3867 8.40234 60.0352 8.40234C58.7539 8.40234 57.9141 8.83594 57.5156 9.70312V18H54.1289V5.32031H57.3281L57.4219 6.83203C58.1016 5.66797 59.043 5.08594 60.2461 5.08594C60.6211 5.08594 60.9727 5.13672 61.3008 5.23828L61.2539 8.49609ZM67.9336 15.5039C68.5586 15.5039 69.0664 15.332 69.457 14.9883C69.8477 14.6445 70.0508 14.1875 70.0664 13.6172H73.2422C73.2344 14.4766 73 15.2656 72.5391 15.9844C72.0781 16.6953 71.4453 17.25 70.6406 17.6484C69.8438 18.0391 68.9609 18.2344 67.9922 18.2344C66.1797 18.2344 64.75 17.6602 63.7031 16.5117C62.6562 15.3555 62.1328 13.7617 62.1328 11.7305V11.5078C62.1328 9.55469 62.6523 7.99609 63.6914 6.83203C64.7305 5.66797 66.1562 5.08594 67.9688 5.08594C69.5547 5.08594 70.8242 5.53906 71.7773 6.44531C72.7383 7.34375 73.2266 8.54297 73.2422 10.043H70.0664C70.0508 9.38672 69.8477 8.85547 69.457 8.44922C69.0664 8.03516 68.5508 7.82812 67.9102 7.82812C67.1211 7.82812 66.5234 8.11719 66.1172 8.69531C65.7188 9.26562 65.5195 10.1953 65.5195 11.4844V11.8359C65.5195 13.1406 65.7188 14.0781 66.1172 14.6484C66.5156 15.2188 67.1211 15.5039 67.9336 15.5039ZM78.4805 6.70312C79.3789 5.625 80.5078 5.08594 81.8672 5.08594C84.6172 5.08594 86.0117 6.68359 86.0508 9.87891V18H82.6641V9.97266C82.6641 9.24609 82.5078 8.71094 82.1953 8.36719C81.8828 8.01562 81.3633 7.83984 80.6367 7.83984C79.6445 7.83984 78.9258 8.22266 78.4805 8.98828V18H75.0938V0H78.4805V6.70312ZM88.8281 18V0.9375H94.0781C95.5781 0.9375 96.918 1.27734 98.0977 1.95703C99.2852 2.62891 100.211 3.58984 100.875 4.83984C101.539 6.08203 101.871 7.49609 101.871 9.08203V9.86719C101.871 11.4531 101.543 12.8633 100.887 14.0977C100.238 15.332 99.3203 16.2891 98.1328 16.9688C96.9453 17.6484 95.6055 17.9922 94.1133 18H88.8281ZM92.3438 3.78516V15.1758H94.043C95.418 15.1758 96.4688 14.7266 97.1953 13.8281C97.9219 12.9297 98.293 11.6445 98.3086 9.97266V9.07031C98.3086 7.33594 97.9492 6.02344 97.2305 5.13281C96.5117 4.23438 95.4609 3.78516 94.0781 3.78516H92.3438ZM110.051 18.2344C108.191 18.2344 106.676 17.6641 105.504 16.5234C104.34 15.3828 103.758 13.8633 103.758 11.9648V11.6367C103.758 10.3633 104.004 9.22656 104.496 8.22656C104.988 7.21875 105.684 6.44531 106.582 5.90625C107.488 5.35938 108.52 5.08594 109.676 5.08594C111.41 5.08594 112.773 5.63281 113.766 6.72656C114.766 7.82031 115.266 9.37109 115.266 11.3789V12.7617H107.191C107.301 13.5898 107.629 14.2539 108.176 14.7539C108.73 15.2539 109.43 15.5039 110.273 15.5039C111.578 15.5039 112.598 15.0312 113.332 14.0859L114.996 15.9492C114.488 16.668 113.801 17.2305 112.934 17.6367C112.066 18.0352 111.105 18.2344 110.051 18.2344ZM109.664 7.82812C108.992 7.82812 108.445 8.05469 108.023 8.50781C107.609 8.96094 107.344 9.60938 107.227 10.4531H111.938V10.1836C111.922 9.43359 111.719 8.85547 111.328 8.44922C110.938 8.03516 110.383 7.82812 109.664 7.82812ZM121.781 13.8633L124.137 5.32031H127.676L123.398 18H120.164L115.887 5.32031H119.426L121.781 13.8633ZM134.848 18.2344C132.988 18.2344 131.473 17.6641 130.301 16.5234C129.137 15.3828 128.555 13.8633 128.555 11.9648V11.6367C128.555 10.3633 128.801 9.22656 129.293 8.22656C129.785 7.21875 130.48 6.44531 131.379 5.90625C132.285 5.35938 133.316 5.08594 134.473 5.08594C136.207 5.08594 137.57 5.63281 138.562 6.72656C139.562 7.82031 140.062 9.37109 140.062 11.3789V12.7617H131.988C132.098 13.5898 132.426 14.2539 132.973 14.7539C133.527 15.2539 134.227 15.5039 135.07 15.5039C136.375 15.5039 137.395 15.0312 138.129 14.0859L139.793 15.9492C139.285 16.668 138.598 17.2305 137.73 17.6367C136.863 18.0352 135.902 18.2344 134.848 18.2344ZM134.461 7.82812C133.789 7.82812 133.242 8.05469 132.82 8.50781C132.406 8.96094 132.141 9.60938 132.023 10.4531H136.734V10.1836C136.719 9.43359 136.516 8.85547 136.125 8.44922C135.734 8.03516 135.18 7.82812 134.461 7.82812ZM145.57 18H142.172V0H145.57V18ZM147.844 11.543C147.844 10.2852 148.086 9.16406 148.57 8.17969C149.055 7.19531 149.75 6.43359 150.656 5.89453C151.57 5.35547 152.629 5.08594 153.832 5.08594C155.543 5.08594 156.938 5.60938 158.016 6.65625C159.102 7.70312 159.707 9.125 159.832 10.9219L159.855 11.7891C159.855 13.7344 159.312 15.2969 158.227 16.4766C157.141 17.6484 155.684 18.2344 153.855 18.2344C152.027 18.2344 150.566 17.6484 149.473 16.4766C148.387 15.3047 147.844 13.7109 147.844 11.6953V11.543ZM151.23 11.7891C151.23 12.9922 151.457 13.9141 151.91 14.5547C152.363 15.1875 153.012 15.5039 153.855 15.5039C154.676 15.5039 155.316 15.1914 155.777 14.5664C156.238 13.9336 156.469 12.9258 156.469 11.543C156.469 10.3633 156.238 9.44922 155.777 8.80078C155.316 8.15234 154.668 7.82812 153.832 7.82812C153.004 7.82812 152.363 8.15234 151.91 8.80078C151.457 9.44141 151.23 10.4375 151.23 11.7891ZM173.355 11.7773C173.355 13.7305 172.91 15.2969 172.02 16.4766C171.137 17.6484 169.941 18.2344 168.434 18.2344C167.152 18.2344 166.117 17.7891 165.328 16.8984V22.875H161.941V5.32031H165.082L165.199 6.5625C166.02 5.57812 167.09 5.08594 168.41 5.08594C169.973 5.08594 171.188 5.66406 172.055 6.82031C172.922 7.97656 173.355 9.57031 173.355 11.6016V11.7773ZM169.969 11.5312C169.969 10.3516 169.758 9.44141 169.336 8.80078C168.922 8.16016 168.316 7.83984 167.52 7.83984C166.457 7.83984 165.727 8.24609 165.328 9.05859V14.25C165.742 15.0859 166.48 15.5039 167.543 15.5039C169.16 15.5039 169.969 14.1797 169.969 11.5312ZM181.301 18.2344C179.441 18.2344 177.926 17.6641 176.754 16.5234C175.59 15.3828 175.008 13.8633 175.008 11.9648V11.6367C175.008 10.3633 175.254 9.22656 175.746 8.22656C176.238 7.21875 176.934 6.44531 177.832 5.90625C178.738 5.35938 179.77 5.08594 180.926 5.08594C182.66 5.08594 184.023 5.63281 185.016 6.72656C186.016 7.82031 186.516 9.37109 186.516 11.3789V12.7617H178.441C178.551 13.5898 178.879 14.2539 179.426 14.7539C179.98 15.2539 180.68 15.5039 181.523 15.5039C182.828 15.5039 183.848 15.0312 184.582 14.0859L186.246 15.9492C185.738 16.668 185.051 17.2305 184.184 17.6367C183.316 18.0352 182.355 18.2344 181.301 18.2344ZM180.914 7.82812C180.242 7.82812 179.695 8.05469 179.273 8.50781C178.859 8.96094 178.594 9.60938 178.477 10.4531H183.188V10.1836C183.172 9.43359 182.969 8.85547 182.578 8.44922C182.188 8.03516 181.633 7.82812 180.914 7.82812ZM195.574 8.49609C195.113 8.43359 194.707 8.40234 194.355 8.40234C193.074 8.40234 192.234 8.83594 191.836 9.70312V18H188.449V5.32031H191.648L191.742 6.83203C192.422 5.66797 193.363 5.08594 194.566 5.08594C194.941 5.08594 195.293 5.13672 195.621 5.23828L195.574 8.49609ZM204.082 14.4961C204.082 14.082 203.875 13.7578 203.461 13.5234C203.055 13.2812 202.398 13.0664 201.492 12.8789C198.477 12.2461 196.969 10.9648 196.969 9.03516C196.969 7.91016 197.434 6.97266 198.363 6.22266C199.301 5.46484 200.523 5.08594 202.031 5.08594C203.641 5.08594 204.926 5.46484 205.887 6.22266C206.855 6.98047 207.34 7.96484 207.34 9.17578H203.953C203.953 8.69141 203.797 8.29297 203.484 7.98047C203.172 7.66016 202.684 7.5 202.02 7.5C201.449 7.5 201.008 7.62891 200.695 7.88672C200.383 8.14453 200.227 8.47266 200.227 8.87109C200.227 9.24609 200.402 9.55078 200.754 9.78516C201.113 10.0117 201.715 10.2109 202.559 10.3828C203.402 10.5469 204.113 10.7344 204.691 10.9453C206.48 11.6016 207.375 12.7383 207.375 14.3555C207.375 15.5117 206.879 16.4492 205.887 17.168C204.895 17.8789 203.613 18.2344 202.043 18.2344C200.98 18.2344 200.035 18.0469 199.207 17.6719C198.387 17.2891 197.742 16.7695 197.273 16.1133C196.805 15.4492 196.57 14.7344 196.57 13.9688H199.781C199.812 14.5703 200.035 15.0312 200.449 15.3516C200.863 15.6719 201.418 15.832 202.113 15.832C202.762 15.832 203.25 15.7109 203.578 15.4688C203.914 15.2188 204.082 14.8945 204.082 14.4961Z" fill="#636363"/>
</svg>
