<svg width="29" height="32" viewBox="0 0 29 32" fill="none" xmlns="http://www.w3.org/2000/svg">
<path d="M26.0642 0.824036H3.34655C1.78471 0.824036 0.506836 2.10191 0.506836 3.66375V28.2746C0.506836 29.8364 1.78471 31.1143 3.34655 31.1143H26.0642C27.6261 31.1143 28.9039 29.8364 28.9039 28.2746V3.66375C28.9039 2.10191 27.6261 0.824036 26.0642 0.824036ZM25.1177 27.328H4.29312V4.61032H25.1177V27.328ZM8.0794 17.8623H21.3314V19.7554H8.0794V17.8623ZM8.0794 21.6486H21.3314V23.5417H8.0794V21.6486ZM9.97254 9.34317C9.97266 8.97013 10.0463 8.60076 10.1891 8.25617C10.332 7.91157 10.5413 7.59849 10.8052 7.3348C11.0691 7.0711 11.3823 6.86197 11.727 6.71933C12.0717 6.57668 12.4411 6.50333 12.8141 6.50346C13.1872 6.50358 13.5565 6.57718 13.9011 6.72005C14.2457 6.86292 14.5588 7.07227 14.8225 7.33613C15.0862 7.6 15.2953 7.91322 15.438 8.25792C15.5806 8.60261 15.654 8.97202 15.6539 9.34506C15.6536 10.0984 15.3541 10.8209 14.8212 11.3534C14.2883 11.886 13.5656 12.185 12.8122 12.1848C12.0589 12.1845 11.3364 11.885 10.8039 11.3521C10.2713 10.8192 9.97229 10.0966 9.97254 9.34317ZM14.7054 12.1829H10.9191C9.35727 12.1829 8.0794 13.0348 8.0794 14.076V15.9692H17.5451V14.076C17.5451 13.0348 16.2672 12.1829 14.7054 12.1829Z" fill="#2686CB"/>
</svg>
