<?xml version="1.0" standalone="no"?>
<!DOCTYPE svg PUBLIC "-//W3C//DTD SVG 20010904//EN"
 "http://www.w3.org/TR/2001/REC-SVG-20010904/DTD/svg10.dtd">
<svg version="1.0" xmlns="http://www.w3.org/2000/svg"
 width="475.000000pt" height="475.000000pt" viewBox="0 0 475.000000 475.000000"
 preserveAspectRatio="xMidYMid meet">

<g transform="translate(0.000000,475.000000) scale(0.100000,-0.100000)"
fill="#000000" stroke="none">
<path d="M3607 4373 c-2 -5 -7 -20 -10 -34 -9 -36 -88 -135 -136 -170 -67 -50
-181 -81 -361 -98 -47 -4 -112 -7 -145 -5 -134 5 -421 4 -454 -1 -112 -18
-341 -102 -455 -167 -146 -84 -271 -229 -286 -332 -3 -22 -10 -40 -15 -39 -67
10 -281 10 -375 -1 -115 -13 -115 -13 -158 11 -53 30 -161 72 -228 87 -69 17
-167 9 -193 -15 -87 -81 -211 -374 -211 -498 0 -18 -14 -47 -38 -77 -158 -201
-312 -666 -312 -943 0 -92 3 -107 26 -147 27 -46 189 -191 270 -241 121 -75
200 -127 210 -140 7 -8 12 -59 12 -126 1 -196 42 -356 153 -595 55 -119 62
-151 44 -201 -22 -64 -20 -84 7 -78 13 2 31 8 40 12 15 6 16 3 7 -30 -6 -20
-8 -39 -5 -42 3 -3 40 6 83 20 53 17 83 23 94 16 10 -5 25 -9 34 -9 9 0 24 -7
32 -16 11 -10 27 -14 47 -11 67 9 161 40 202 66 48 30 149 150 190 226 58 109
119 207 130 212 7 2 45 -7 85 -22 65 -23 76 -31 91 -63 10 -21 40 -63 68 -94
42 -48 50 -62 50 -97 0 -50 8 -55 48 -31 25 16 37 17 61 9 30 -11 31 -11 24
-72 -3 -34 -11 -69 -18 -77 -8 -8 -16 -31 -20 -51 -9 -48 7 -60 65 -49 66 12
108 2 125 -30 8 -15 25 -34 39 -43 24 -16 28 -16 82 13 75 38 93 40 135 7 20
-15 39 -27 44 -27 4 0 26 15 49 33 23 18 59 39 81 46 94 33 235 163 330 306
35 54 37 55 83 55 60 0 83 -16 116 -83 14 -30 40 -72 56 -92 32 -41 33 -42 34
-95 1 -34 2 -35 36 -32 99 7 132 4 151 -17 16 -17 31 -20 79 -20 33 1 63 5 66
10 8 14 60 10 97 -7 33 -16 36 -15 108 16 91 40 100 47 159 135 95 142 132
243 150 414 26 237 -16 467 -121 664 -26 48 -19 70 37 102 42 24 177 151 214
200 23 29 60 112 60 132 0 10 7 38 16 62 37 107 49 332 23 431 -5 19 -9 47 -9
62 0 15 -11 62 -25 104 -14 42 -25 83 -25 91 0 8 -15 46 -34 86 -18 40 -37 83
-41 97 -9 29 -68 135 -130 235 -24 39 -51 86 -61 105 -67 140 -85 186 -104
251 -11 40 -20 95 -20 121 0 78 29 177 72 250 25 42 37 73 32 78 -13 13 -57
14 -132 5 l-63 -8 6 39 c4 22 16 62 27 91 11 29 17 57 13 62 -19 32 -165 -17
-227 -76 -15 -15 -29 -25 -31 -22 -2 2 -11 25 -21 51 -25 67 -112 141 -129
111z m60 -55 c18 -19 41 -60 53 -96 l21 -64 -25 -42 c-48 -83 -152 -153 -273
-185 -23 -6 -45 -16 -48 -21 -9 -14 1 -13 70 9 89 28 127 46 180 86 64 49 90
80 122 145 29 58 49 79 122 122 43 26 91 37 91 21 0 -4 -6 -25 -14 -48 -36
-107 -57 -187 -51 -204 3 -10 1 -31 -5 -47 -25 -64 -43 -195 -43 -304 -1 -98
3 -127 26 -195 14 -44 31 -105 38 -135 6 -30 21 -75 34 -100 12 -25 30 -67 39
-95 8 -27 29 -87 46 -133 31 -85 34 -97 50 -192 13 -72 13 -212 0 -245 -8 -20
-7 -26 2 -23 22 8 40 82 40 168 -1 105 -11 150 -73 322 -27 75 -49 143 -49
151 0 8 -6 19 -13 26 -23 18 -94 259 -112 378 -11 73 -10 95 11 220 21 131 46
224 66 250 9 12 145 29 155 20 3 -4 -16 -45 -42 -93 -41 -77 -48 -97 -52 -164
-3 -42 0 -108 6 -146 18 -102 103 -288 193 -422 35 -53 118 -208 118 -222 0
-6 15 -45 34 -88 114 -259 135 -494 66 -756 -27 -101 -38 -122 -105 -194 -71
-77 -134 -117 -213 -135 l-63 -14 -29 41 c-69 101 -198 239 -282 303 l-28 21
48 13 c73 20 132 53 195 109 55 50 87 90 70 90 -4 0 -29 -20 -54 -43 -61 -58
-93 -79 -167 -110 -96 -41 -122 -37 -227 33 -122 81 -239 168 -310 232 -113
101 -258 243 -304 299 -47 55 -47 56 -95 265 -102 445 -110 461 -229 466 l-68
3 64 66 c87 91 176 132 343 159 75 12 134 30 134 39 0 5 -19 5 -42 1 -24 -5
-77 -14 -118 -20 -98 -16 -214 -55 -266 -91 -47 -32 -119 -110 -140 -151 -8
-16 -22 -28 -30 -28 -21 0 -156 -47 -224 -77 -75 -34 -106 -38 -170 -19 -47
13 -154 30 -315 50 -22 3 -41 5 -42 6 -1 0 3 13 8 30 6 16 15 27 20 24 5 -3 6
2 3 10 -7 18 34 90 86 148 84 96 195 165 369 229 158 59 238 69 606 72 260 3
332 7 385 20 122 32 172 51 217 83 52 37 130 136 139 177 7 35 13 34 51 -5z
m-2648 -729 c93 -26 181 -64 181 -78 0 -6 -7 -11 -15 -11 -27 0 -107 -32 -156
-62 -52 -32 -68 -56 -21 -33 62 30 191 75 247 85 194 34 694 12 887 -41 39
-10 39 -11 22 -30 -9 -10 -15 -21 -12 -24 2 -2 49 17 104 43 104 51 182 78
324 111 115 28 139 22 172 -43 31 -59 50 -131 109 -401 38 -179 124 -738 130
-845 0 -8 5 -4 10 9 5 13 7 49 4 80 -13 134 -47 389 -56 427 -22 86 -9 78 163
-93 92 -92 167 -167 165 -168 -1 -1 -27 -12 -57 -24 -64 -27 -90 -47 -90 -71
0 -18 55 -128 149 -298 35 -63 69 -128 76 -146 12 -28 20 -33 74 -44 71 -15
266 -17 302 -3 14 5 30 15 36 22 17 23 14 129 -5 186 -17 47 -17 51 -2 43 23
-13 147 -145 201 -215 130 -170 244 -397 281 -560 17 -76 16 -314 -1 -415 -21
-122 -65 -242 -113 -310 -23 -34 -48 -72 -55 -84 -16 -28 -51 -56 -70 -56 -8
0 -28 14 -43 30 -39 42 -71 39 -118 -9 -21 -22 -43 -36 -48 -33 -6 4 -22 24
-38 44 -32 43 -81 65 -104 45 -8 -6 -21 -27 -29 -44 -7 -18 -17 -33 -21 -33
-4 0 -29 23 -56 51 -40 42 -53 49 -73 44 -33 -8 -62 22 -106 111 -68 135 -80
269 -33 369 15 33 31 78 36 100 13 60 50 155 79 200 44 68 121 163 148 183 14
10 23 25 21 33 -8 20 -117 -96 -179 -190 l-49 -74 0 39 c0 65 -23 254 -31 254
-4 0 -7 -78 -6 -172 1 -265 -25 -354 -190 -633 -36 -60 -90 -138 -120 -174
-70 -82 -208 -199 -247 -209 -27 -7 -33 -5 -51 22 -30 45 -57 44 -103 -3 -27
-28 -45 -39 -56 -35 -9 3 -16 10 -16 14 0 5 -15 25 -34 44 -45 48 -83 49 -129
1 -19 -19 -39 -35 -45 -35 -6 0 -26 22 -46 49 -20 27 -43 51 -51 54 -15 6 -13
37 7 129 l10 48 45 -40 c25 -22 53 -40 61 -40 33 0 139 45 164 69 19 19 37 62
66 161 58 196 67 249 45 280 -12 17 -21 20 -46 14 -41 -8 -171 -68 -209 -95
-16 -12 -32 -19 -35 -16 -13 14 71 210 133 309 28 44 32 67 8 47 -42 -35 -140
-224 -169 -327 -10 -35 -53 -165 -59 -179 -1 0 -42 5 -93 13 -154 22 -285 51
-353 78 -99 38 -254 119 -315 165 -30 23 -60 41 -67 41 -23 -1 67 -74 153
-124 46 -27 101 -60 121 -73 48 -33 58 -12 -148 -330 -57 -88 -105 -132 -157
-142 -29 -7 -34 -4 -52 27 -39 68 -69 68 -114 -1 -26 -40 -61 -50 -61 -18 0
22 -83 101 -107 101 -9 0 -26 -9 -38 -20 l-22 -20 -29 50 c-47 82 -84 154 -84
166 0 7 30 9 88 6 l88 -4 43 53 c24 30 52 71 62 91 19 37 19 38 -6 143 -13 58
-32 116 -41 130 l-16 24 -47 -19 c-101 -39 -196 -112 -241 -183 l-17 -27 -21
82 c-26 99 -42 225 -42 326 l0 73 29 -21 c105 -74 371 -170 569 -204 132 -23
294 -29 392 -16 47 6 117 15 155 20 39 4 95 15 125 23 30 8 73 18 95 22 85 14
237 66 337 113 139 66 328 208 328 246 0 9 4 16 9 16 15 0 32 58 18 67 -6 3
-12 2 -15 -5 -9 -29 -90 -137 -123 -165 -20 -18 -95 -61 -165 -96 -71 -35
-140 -70 -154 -76 -63 -32 -281 -88 -393 -101 -23 -3 -44 -7 -47 -9 -13 -8
-270 -27 -370 -27 -253 0 -579 101 -791 244 -31 21 -59 38 -63 38 -4 0 -41 24
-82 53 -41 28 -88 59 -103 67 -68 37 -184 146 -235 219 -25 36 -29 51 -30 114
-1 98 20 249 50 360 14 50 31 115 39 142 32 121 123 314 205 435 24 36 89 111
144 168 54 56 95 102 89 102 -5 0 -43 -29 -84 -65 -50 -44 -75 -61 -77 -51
-10 48 64 263 123 354 58 91 60 92 133 92 37 0 99 -9 141 -21z m2593 -1317
c31 -23 66 -56 78 -74 l22 -33 -34 36 c-18 20 -59 55 -90 79 -32 23 -58 45
-58 47 0 3 6 1 13 -4 6 -6 37 -28 69 -51z m659 -363 c-60 -56 -123 -92 -153
-87 -45 6 -27 26 41 47 40 12 88 36 113 55 62 49 61 43 -1 -15z m-3122 -680
c13 -37 14 -76 2 -44 -9 22 -14 -2 -27 -124 -3 -35 -10 -78 -15 -94 -8 -29 -8
-29 13 -11 17 15 15 10 -7 -24 -15 -23 -38 -45 -49 -48 -26 -6 -146 12 -158
24 -4 4 -19 35 -32 68 l-23 61 19 37 c29 57 96 119 168 154 80 40 95 40 109 1z
m1496 -96 c-4 -27 -17 -82 -30 -123 -12 -41 -29 -97 -36 -125 -7 -27 -15 -42
-17 -32 -2 11 -13 17 -31 17 -15 0 -30 3 -34 6 -3 4 -25 7 -48 8 -34 2 -47 9
-70 37 -16 19 -29 28 -29 22 0 -7 5 -13 10 -13 6 0 10 -4 10 -10 0 -5 -7 -7
-15 -4 -9 4 -19 -3 -25 -17 -8 -19 -9 -13 -4 26 8 71 32 115 86 155 54 40 181
99 217 100 22 0 23 -2 16 -47z m640 -291 c-1 -1 -21 0 -43 4 l-40 6 29 48 c16
26 30 53 30 61 1 8 7 -15 14 -51 7 -36 12 -66 10 -68z m-1195 89 c36 -6 86
-13 112 -15 26 -3 53 -8 59 -11 11 -8 7 -49 -16 -153 l-6 -31 -48 24 c-65 33
-133 95 -171 156 -25 41 -27 50 -13 45 10 -3 47 -10 83 -15z m456 -146 c-9
-14 -33 -32 -52 -40 -54 -22 -55 -17 -2 10 25 14 50 34 53 46 4 11 9 18 12 15
3 -3 -2 -17 -11 -31z m-192 -54 c-3 -3 -15 6 -27 18 l-22 24 27 -19 c14 -10
24 -21 22 -23z m-218 -9 c-22 -5 -30 3 -21 18 5 8 11 7 22 -2 15 -12 14 -13
-1 -16z m-1140 -78 c15 -30 15 -37 3 -45 -19 -12 -36 -11 -44 1 -6 10 12 80
20 80 2 0 12 -16 21 -36z m137 -22 c44 -45 40 -52 -34 -70 -26 -7 -54 -14 -63
-18 -11 -4 -16 -1 -16 11 0 24 51 115 65 115 6 0 28 -17 48 -38z m198 -9 c18
-23 41 -64 37 -67 -38 -24 -93 -32 -103 -16 -7 12 30 100 43 100 5 0 15 -8 23
-17z m2184 -25 l28 -33 -29 -12 c-35 -15 -51 -16 -58 -5 -7 12 13 82 24 82 4
0 20 -15 35 -32z m206 -20 c16 -18 29 -35 29 -39 0 -10 -49 -29 -75 -29 -32 0
-38 13 -25 60 13 49 31 51 71 8z m213 -9 c35 -27 33 -42 -7 -57 -42 -15 -42
-15 -61 4 -21 20 -20 26 4 52 26 27 31 27 64 1z m-1652 -26 c15 -15 28 -30 28
-34 0 -10 -70 -30 -82 -23 -11 7 -10 28 4 59 14 31 16 31 50 -2z m237 -42 c17
-21 31 -42 31 -45 0 -9 -81 -46 -101 -46 -9 0 -24 16 -34 36 -13 29 -14 38 -4
52 41 53 68 54 108 3z m197 -6 c20 -30 13 -51 -21 -67 -22 -10 -29 -9 -46 9
l-20 20 26 31 c32 39 40 39 61 7z"/>
<path d="M3170 3870 c-12 -8 -11 -10 7 -10 12 0 25 5 28 10 8 13 -15 13 -35 0z"/>
<path d="M1665 3298 c-117 -13 -335 -81 -405 -128 -14 -9 -49 -30 -78 -45 -77
-41 -82 -57 -36 -108 45 -52 65 -69 129 -111 63 -40 85 -49 99 -37 6 5 43 25
81 44 101 51 275 178 336 245 100 111 101 155 5 150 -28 -1 -87 -6 -131 -10z
m175 -27 c0 -23 -79 -116 -145 -171 -16 -14 5 12 48 58 42 46 77 90 77 97 0 8
-12 16 -27 18 -23 3 -21 4 10 6 20 0 37 -3 37 -8z m-245 -18 c-11 -3 -49 -26
-83 -52 -65 -47 -144 -95 -219 -132 -23 -11 -53 -31 -67 -44 l-24 -23 -32 34
-33 33 54 34 c138 87 316 156 399 155 20 0 21 -1 5 -5z m65 -177 c0 -2 -27
-22 -60 -45 -33 -23 -60 -40 -60 -37 0 4 112 86 117 86 2 0 3 -2 3 -4z m-376
-145 c-2 -3 -12 3 -22 13 -16 17 -16 18 5 5 12 -7 20 -15 17 -18z m151 -1 c-3
-5 -12 -10 -18 -10 -7 0 -6 4 3 10 19 12 23 12 15 0z m-100 -28 c-3 -3 -11 0
-18 7 -9 10 -8 11 6 5 10 -3 15 -9 12 -12z"/>
<path d="M960 2882 l-55 -27 1 -50 c0 -27 3 -67 7 -87 7 -36 9 -37 40 -31 58
10 70 32 75 133 3 49 1 90 -4 90 -5 0 -34 -13 -64 -28z m-12 -42 c-7 -10 -14
-17 -17 -15 -4 4 18 35 25 35 2 0 -1 -9 -8 -20z m22 -110 c10 0 21 6 23 13 4
9 6 9 6 -1 1 -7 -11 -17 -25 -22 -34 -13 -34 -13 -33 13 0 12 3 16 6 10 2 -7
13 -13 23 -13z"/>
<path d="M517 2788 c-109 -110 -177 -283 -177 -454 0 -36 4 -64 10 -64 6 0 10
29 10 68 0 37 7 92 16 122 8 30 20 73 25 94 16 65 81 178 127 224 50 48 88 55
101 20 6 -17 1 -29 -26 -55 -36 -37 -53 -71 -89 -183 -19 -60 -24 -96 -24
-185 0 -60 5 -139 10 -174 6 -35 9 -66 6 -69 -3 -2 -17 3 -30 12 -14 9 -33 16
-43 16 -9 0 -27 10 -40 22 -13 12 -23 17 -23 12 0 -15 14 -28 45 -44 17 -8 37
-19 45 -25 14 -11 91 -36 151 -50 30 -7 49 11 54 52 11 75 25 329 21 357 -3
17 -8 78 -11 136 -14 250 -43 281 -158 168z m143 -215 c0 -5 3 -40 7 -80 8
-106 -5 -283 -23 -283 -53 0 -65 225 -17 333 14 33 33 49 33 30z"/>
<path d="M777 2765 c-11 -63 -8 -225 3 -225 6 0 10 30 11 68 0 37 1 85 3 107
1 22 -1 51 -4 65 -6 22 -7 20 -13 -15z"/>
<path d="M1864 2792 c-37 -25 -131 -202 -134 -252 -5 -84 10 -77 29 13 14 62
69 177 104 214 20 23 21 38 1 25z"/>
<path d="M2185 2778 c-101 -53 -241 -217 -293 -343 -13 -33 -30 -98 -38 -145
-17 -102 -19 -266 -3 -275 18 -12 173 -19 166 -8 -4 6 -32 13 -64 16 -86 9
-96 25 -89 153 13 229 128 449 294 559 49 32 63 28 34 -12 -47 -66 -77 -164
-92 -300 -18 -151 2 -280 58 -385 2 -4 -17 -10 -42 -13 -68 -11 -57 -28 12
-20 235 27 404 66 433 101 17 20 14 202 -5 296 -9 46 -35 120 -64 181 -39 82
-59 111 -98 143 -93 78 -138 89 -209 52z m184 -224 c28 -36 45 -125 36 -198
-8 -72 -38 -146 -59 -146 -25 0 -64 58 -77 116 -17 77 -1 195 32 230 29 31 43
30 68 -2z"/>
<path d="M1395 2673 c-28 -8 -59 -33 -147 -121 -43 -42 -78 -84 -78 -93 0 -34
174 -159 222 -159 15 0 28 3 29 8 0 4 2 16 4 27 6 34 35 280 35 297 0 17 -26
49 -38 47 -4 -1 -16 -4 -27 -6z m-154 -176 c-10 -9 -11 -8 -5 6 3 10 9 15 12
12 3 -3 0 -11 -7 -18z m-26 -28 c-4 -5 13 -29 37 -51 33 -32 36 -36 11 -19
-37 25 -65 60 -57 73 3 4 7 8 10 8 3 0 2 -5 -1 -11z m177 -131 c-9 -9 -92 25
-92 37 0 3 18 -4 40 -15 50 -25 50 -25 51 8 2 25 2 25 6 3 3 -13 0 -28 -5 -33z"/>
<path d="M330 2018 c0 -19 6 -41 13 -49 19 -24 87 -64 183 -110 61 -28 95 -51
109 -72 11 -17 36 -40 56 -51 19 -12 67 -40 107 -64 201 -120 427 -210 582
-231 177 -24 452 32 614 125 83 47 93 54 151 95 28 20 65 40 83 43 18 4 42 21
57 39 37 47 68 77 80 77 5 0 52 16 104 36 87 34 94 39 112 78 35 77 20 91 -24
21 -26 -40 -37 -47 -132 -84 -203 -79 -403 -114 -765 -136 -407 -25 -652 -16
-791 28 -212 69 -273 91 -334 122 -99 51 -175 105 -175 125 0 10 -7 23 -15 30
-13 11 -15 8 -15 -22z m378 -227 c11 -6 11 -10 -1 -19 -11 -9 -19 -6 -38 14
l-24 26 25 -7 c14 -4 31 -11 38 -14z m1552 -12 c0 -41 -50 -65 -78 -37 -19 19
-14 27 21 37 44 13 57 13 57 0z m-153 -35 c-3 -3 -12 -4 -19 -1 -8 3 -5 6 6 6
11 1 17 -2 13 -5z m-54 -11 c-7 -2 -21 -2 -30 0 -10 3 -4 5 12 5 17 0 24 -2
18 -5z m-70 -10 c-7 -2 -19 -2 -25 0 -7 3 -2 5 12 5 14 0 19 -2 13 -5z m-80
-10 c-7 -2 -19 -2 -25 0 -7 3 -2 5 12 5 14 0 19 -2 13 -5z m-153 -94 c85 -18
165 -33 178 -33 35 -1 26 -11 -30 -33 -168 -67 -283 -87 -453 -80 -147 6 -256
35 -415 109 l-45 21 84 19 c139 31 209 37 371 33 125 -3 185 -10 310 -36z"/>
<path d="M796 1921 c-4 -6 -1 -21 6 -33 10 -20 13 -20 16 -6 5 23 -13 54 -22
39z"/>
<path d="M1149 1881 c-13 -11 -21 -23 -17 -26 9 -9 58 21 58 35 0 15 -15 12
-41 -9z"/>
<path d="M3795 1538 c-47 -18 -156 -90 -232 -157 -74 -63 -94 -101 -70 -130 7
-9 18 -29 25 -44 32 -75 157 -201 218 -221 25 -8 121 33 148 63 17 18 18 32
12 128 -12 212 -24 309 -40 341 -18 35 -18 35 -61 20z m35 -28 c0 -5 -8 -10
-17 -10 -15 0 -16 2 -3 10 19 12 20 12 20 0z m-74 -28 c-3 -5 -25 -21 -50 -37
-25 -16 -44 -31 -41 -33 2 -2 0 -15 -5 -28 -6 -15 -6 -24 0 -24 5 0 7 -14 3
-32 -7 -35 -37 -92 -46 -86 -7 4 -47 -33 -47 -44 0 -5 12 -1 26 8 22 15 27 15
36 3 8 -11 9 -10 4 4 -7 22 10 23 18 1 8 -20 -19 -64 -39 -64 -9 0 -12 -6 -9
-17 10 -30 -33 27 -66 88 -16 31 -30 62 -30 68 0 19 118 124 183 163 70 41 70
41 63 30z"/>
<path d="M2408 1406 c-22 -44 -34 -126 -19 -126 6 0 13 12 16 28 3 15 12 48
20 73 17 54 18 59 7 59 -5 0 -16 -15 -24 -34z"/>
<path d="M2784 1370 c-49 -25 -84 -56 -84 -75 0 -26 58 -109 87 -127 33 -19
75 -14 99 14 16 17 17 26 6 87 -22 128 -32 138 -108 101z m74 -45 c7 -25 12
-63 12 -85 0 -35 -4 -42 -27 -51 -35 -13 -60 0 -90 46 -30 46 -29 69 5 91 26
18 71 41 82 43 3 1 11 -19 18 -44z"/>
<path d="M2155 1353 c-18 -14 -19 -15 -1 -9 16 5 17 4 6 -9 -7 -8 -20 -13 -30
-10 -10 3 -24 -4 -36 -17 -10 -12 -13 -18 -6 -14 29 17 9 -21 -23 -43 -21 -14
-35 -32 -35 -45 0 -17 -2 -18 -10 -6 -5 8 -10 10 -10 5 0 -6 6 -17 13 -24 10
-11 9 -13 -6 -8 -11 4 -16 3 -12 -4 4 -6 13 -8 21 -5 20 8 17 -11 -3 -24 -16
-10 -16 -11 2 -5 11 4 29 10 40 13 36 9 152 82 178 111 17 20 24 39 23 60 -3
37 -2 37 -51 44 -29 4 -46 1 -60 -10z m91 -13 c-2 -3 0 -14 4 -25 5 -16 -2
-28 -34 -57 -23 -21 -47 -38 -54 -38 -7 0 -10 -5 -6 -12 5 -7 3 -8 -6 -3 -8 5
-18 1 -27 -10 -7 -11 -13 -16 -13 -12 0 4 -9 3 -20 -3 -27 -14 -65 -3 -51 14
6 7 8 15 5 18 -2 3 2 8 10 11 12 5 13 1 6 -18 -7 -19 -6 -25 4 -25 9 0 13 11
12 33 0 17 2 32 5 32 4 0 16 9 28 19 17 15 19 22 9 35 -10 13 -10 14 1 4 11
-9 19 -8 37 4 29 19 32 3 4 -22 -11 -10 -20 -22 -20 -27 0 -13 34 -9 58 8 26
18 30 54 6 54 -13 0 -14 3 -5 14 11 13 54 19 47 6z m-61 -60 c3 -5 1 -10 -4
-10 -6 0 -11 5 -11 10 0 6 2 10 4 10 3 0 8 -4 11 -10z"/>
<path d="M1924 1295 c-10 -8 -14 -15 -8 -15 6 0 17 7 24 15 16 19 9 19 -16 0z"/>
<path d="M1445 1281 c-3 -6 4 -15 16 -21 17 -9 24 -8 40 6 23 21 17 33 -8 13
-11 -9 -14 -10 -9 -1 5 8 1 12 -13 12 -11 0 -22 -4 -26 -9z"/>
<path d="M1654 1268 l-19 -23 23 19 c21 18 27 26 19 26 -2 0 -12 -10 -23 -22z"/>
<path d="M1562 1246 c-25 -25 -30 -35 -19 -39 8 -3 24 3 35 14 23 20 37 25 27
9 -3 -6 1 -7 10 -3 11 4 13 8 5 13 -6 3 -8 14 -4 23 10 28 -18 19 -54 -17z"/>
<path d="M1879 1263 c-13 -16 -12 -17 4 -4 16 13 21 21 13 21 -2 0 -10 -8 -17
-17z"/>
<path d="M1823 1216 c-15 -17 -24 -28 -19 -24 5 5 15 3 21 -2 8 -7 20 -4 37 9
14 11 34 19 46 18 21 -1 20 -8 -7 -42 -12 -16 -10 -15 10 3 23 20 27 21 39 7
7 -8 15 -13 18 -10 3 3 -3 13 -12 24 -12 13 -14 21 -6 26 6 3 9 3 8 -2 -2 -4
1 -9 7 -11 5 -2 11 1 13 6 4 13 -54 32 -95 30 -22 -1 -41 -11 -60 -32z"/>
<path d="M2127 1161 c-41 -27 -46 -34 -12 -20 32 14 66 39 50 38 -6 0 -22 -8
-38 -18z"/>
<path d="M1920 1160 c0 -5 7 -10 16 -10 8 0 12 5 9 10 -3 6 -10 10 -16 10 -5
0 -9 -4 -9 -10z"/>
<path d="M2035 1110 c-3 -5 -2 -10 4 -10 5 0 13 5 16 10 3 6 2 10 -4 10 -5 0
-13 -4 -16 -10z"/>
<path d="M2162 1013 c-40 -26 -41 -28 -20 -36 29 -10 75 0 82 19 4 11 10 12
25 4 24 -12 41 -13 41 -1 0 17 -61 21 -83 6 -12 -8 -27 -15 -34 -15 -23 0 -14
16 20 33 17 8 27 16 22 16 -6 1 -30 -11 -53 -26z"/>
<path d="M3235 880 c-18 -20 -18 -20 8 -20 28 0 32 6 19 28 -7 9 -13 8 -27 -8z"/>
<path d="M2077 914 c-13 -13 -7 -27 7 -15 11 9 13 4 11 -28 -2 -44 7 -67 24
-57 6 4 11 1 11 -6 1 -7 8 0 16 15 11 21 13 32 4 42 -8 9 -8 15 0 20 5 3 10
10 10 16 0 5 -9 4 -19 -3 -11 -7 -18 -21 -16 -35 3 -29 -11 -40 -18 -13 -3 11
0 20 6 20 6 0 7 3 4 7 -4 3 -2 12 4 20 8 8 8 13 1 13 -6 0 -17 2 -24 5 -8 3
-17 2 -21 -1z"/>
</g>
</svg>
