<?xml version="1.0" standalone="no"?>
<!DOCTYPE svg PUBLIC "-//W3C//DTD SVG 20010904//EN"
 "http://www.w3.org/TR/2001/REC-SVG-20010904/DTD/svg10.dtd">
<svg version="1.0" xmlns="http://www.w3.org/2000/svg"
 width="475.000000pt" height="475.000000pt" viewBox="0 0 475.000000 475.000000"
 preserveAspectRatio="xMidYMid meet">

<g transform="translate(0.000000,475.000000) scale(0.100000,-0.100000)"
fill="#000000" stroke="none">
<path d="M2015 4379 c-4 -6 -1 -46 6 -89 11 -71 11 -83 -5 -118 -10 -21 -28
-52 -41 -68 -33 -40 -48 -23 -43 50 1 31 0 56 -3 56 -4 0 -29 -18 -57 -40
l-51 -41 -30 44 c-28 41 -48 57 -72 57 -5 0 -9 -21 -9 -47 0 -58 -20 -137 -48
-190 -124 -235 -196 -431 -215 -580 -6 -51 -16 -93 -22 -93 -5 1 -37 7 -70 15
-92 22 -87 28 -80 -87 3 -57 8 -125 11 -153 3 -32 1 -46 -5 -40 -13 13 -161
311 -161 323 0 10 -40 16 -182 28 -92 8 -88 15 -58 -122 11 -49 20 -93 20 -99
0 -21 -22 17 -85 144 l-66 133 -32 -5 c-18 -3 -76 -11 -129 -18 -54 -7 -102
-15 -108 -19 -7 -4 -5 -22 7 -54 20 -54 19 -56 -54 -78 -24 -7 -43 -16 -43
-21 0 -5 27 -59 60 -119 33 -61 58 -113 57 -115 -4 -4 -94 35 -170 73 -27 13
-52 24 -57 24 -9 0 -40 -124 -40 -158 0 -12 20 -30 62 -53 34 -19 61 -38 61
-44 -1 -5 -30 -15 -64 -22 -72 -14 -86 -24 -66 -45 8 -8 22 -29 32 -48 10 -19
38 -65 63 -102 50 -76 40 -74 150 -31 35 14 66 22 69 19 3 -3 -22 -22 -55 -43
-34 -21 -61 -43 -62 -48 0 -6 26 -36 58 -68 l57 -57 38 20 c39 21 51 11 16
-13 -22 -16 -23 -15 178 -122 l71 -38 70 51 c74 55 98 66 65 30 -36 -40 -35
-45 15 -63 26 -10 71 -29 100 -43 47 -22 54 -23 70 -10 9 9 28 21 42 28 24 12
24 11 -4 -19 -16 -17 -28 -33 -25 -35 2 -2 37 -20 77 -40 39 -20 72 -40 72
-44 0 -4 -46 -27 -103 -50 -144 -62 -288 -135 -381 -196 -45 -29 -111 -72
-148 -95 -76 -48 -78 -53 -48 -135 l21 -54 59 31 c33 16 63 28 66 25 3 -4 -19
-42 -50 -86 -31 -44 -56 -84 -56 -89 0 -5 24 -17 53 -28 28 -10 57 -20 63 -22
6 -2 30 24 53 58 22 33 41 58 41 53 0 -4 -10 -38 -22 -76 -29 -89 -24 -94 79
-81 81 11 151 37 164 63 4 8 15 35 25 60 20 50 30 60 57 60 17 0 18 -8 16 -77
l-3 -78 34 3 c19 1 45 5 58 7 27 7 27 7 -4 -90 -26 -83 -68 -263 -85 -375 -25
-155 -5 -386 36 -420 6 -5 44 -14 85 -21 47 -7 87 -20 109 -35 44 -30 71 -31
71 -4 0 16 7 20 35 20 20 0 48 -6 63 -14 15 -8 45 -16 67 -18 36 -3 40 -1 44
22 4 35 18 41 77 34 32 -4 54 -2 58 5 4 6 -3 33 -15 61 l-22 51 52 105 c69
139 73 141 193 81 89 -43 189 -78 270 -92 32 -6 40 -14 60 -54 24 -51 72 -122
129 -191 38 -47 91 -70 159 -70 17 0 38 -4 48 -10 9 -5 36 -16 60 -24 l42 -14
0 29 c0 49 6 49 229 1 23 -5 24 -3 17 37 -3 22 -4 41 -1 41 2 0 25 -7 51 -16
65 -22 77 -15 58 33 -9 21 -29 55 -45 75 -24 30 -29 46 -29 91 0 29 -5 100
-11 158 -6 57 -12 114 -12 127 -2 18 9 27 58 49 33 15 87 44 120 65 68 42 74
40 100 -30 34 -91 165 -348 202 -397 34 -43 46 -52 93 -63 30 -7 90 -24 132
-38 43 -13 92 -24 109 -24 27 0 31 3 26 21 -4 13 -1 19 6 16 51 -18 149 -38
162 -34 11 5 14 14 9 32 -7 27 -1 29 58 25 47 -3 44 20 -8 70 l-49 47 4 164
c4 232 -27 437 -104 672 -19 59 -35 116 -35 125 0 10 22 30 53 49 73 44 256
232 306 316 13 21 37 43 54 51 18 7 39 26 47 42 8 16 27 39 42 52 15 13 33 41
39 63 12 38 10 44 -29 122 -23 45 -51 116 -63 157 -12 41 -36 100 -54 131 -18
31 -36 76 -40 100 -8 51 -26 74 -75 99 -30 15 -37 26 -47 71 -17 75 -117 273
-150 299 -32 25 -70 22 -211 -12 -45 -11 -85 -19 -87 -16 -3 2 2 41 11 87 18
98 14 108 -57 117 -52 7 -68 24 -22 24 15 0 69 7 120 17 80 14 94 19 98 37 14
64 25 145 25 179 l0 40 -92 -6 c-55 -3 -85 -2 -73 3 11 5 35 14 53 22 18 7 35
22 37 33 9 45 14 176 9 205 -8 36 -8 36 -138 -22 -49 -21 -95 -37 -103 -34
-11 5 -14 24 -12 86 2 43 1 82 -3 85 -3 3 -28 8 -56 12 -46 5 -51 8 -54 32 -4
38 -59 47 -169 29 l-84 -13 -3 -150 c-1 -82 -6 -153 -11 -158 -5 -5 -35 35
-71 97 -34 58 -64 106 -67 106 -2 0 -40 -37 -84 -82 -74 -77 -79 -85 -74 -116
4 -18 9 -40 12 -48 11 -30 -14 -11 -44 34 -57 85 -234 242 -337 301 -64 37
-88 67 -107 131 -7 25 -16 49 -20 54 -4 5 -28 -3 -52 -16 l-45 -25 -11 38
c-14 46 -23 48 -57 14 -25 -25 -26 -25 -31 -5 -7 27 -21 25 -54 -6 l-27 -26
-19 22 c-10 12 -36 39 -57 59 -21 20 -45 42 -52 49 -15 15 -21 15 -29 1z m60
-51 c18 -12 44 -41 59 -65 l28 -43 34 26 34 26 18 -22 17 -21 24 25 c32 34 41
33 41 -3 0 -41 13 -45 61 -21 22 12 42 20 44 18 1 -2 10 -26 19 -54 19 -57 57
-98 131 -140 126 -71 281 -216 348 -327 36 -59 72 -155 62 -165 -2 -3 -24 13
-48 34 -109 98 -168 145 -176 142 -11 -4 -95 -109 -111 -137 -10 -20 -9 -26
11 -47 12 -13 19 -24 15 -24 -5 0 -3 -7 4 -15 17 -20 8 -19 -34 6 l-35 21 -31
-48 c-30 -48 -42 -51 -15 -4 18 31 19 48 3 32 -14 -14 -32 -16 -24 -3 4 5 1
11 -6 13 -7 3 -9 11 -3 24 17 40 13 48 -11 21 -13 -16 -22 -33 -19 -38 4 -5
-11 -25 -32 -44 -32 -30 -43 -34 -70 -29 -21 4 -33 2 -33 -5 0 -6 -9 -11 -20
-11 -12 0 -32 -17 -51 -42 -17 -24 -35 -42 -41 -40 -5 1 -7 -1 -4 -6 3 -5 -4
-16 -15 -25 -10 -9 -19 -13 -20 -9 0 4 -4 -3 -10 -16 -7 -19 -11 -21 -23 -10
-10 9 -11 15 -2 20 6 4 -2 7 -19 6 -16 -1 -40 -8 -52 -16 -14 -9 -23 -10 -28
-3 -10 18 -25 12 -19 -6 4 -12 3 -14 -3 -6 -12 17 -45 -10 -37 -31 3 -9 1 -16
-6 -16 -6 0 -8 5 -5 10 9 15 -4 12 -21 -5 -17 -17 -44 -20 -44 -5 0 6 -4 10
-9 10 -6 0 -12 -21 -14 -47 -2 -27 -2 9 0 79 5 154 22 266 62 419 57 215 72
369 50 499 -26 156 -26 155 26 118z m-290 -178 c12 -23 12 -29 -2 -43 -9 -9
-14 -20 -10 -24 7 -6 24 5 104 65 l32 24 -6 -39 c-3 -21 -13 -69 -23 -108 -44
-170 -46 -387 -5 -605 9 -47 18 -121 20 -165 2 -44 1 -64 -2 -43 -4 35 -33 62
-41 39 -6 -18 -22 -1 -22 23 0 27 24 51 40 41 5 -3 10 -2 10 3 0 5 -10 12 -22
15 -26 7 -50 -19 -45 -50 5 -26 -12 -55 -20 -35 -2 6 -9 10 -14 6 -5 -3 -9 -1
-9 5 0 5 6 12 13 15 6 3 3 4 -8 3 -14 -2 -19 -9 -18 -25 2 -15 -1 -20 -13 -15
-8 3 -13 12 -10 19 3 8 1 14 -5 14 -6 0 -7 5 -4 10 3 6 -1 10 -10 10 -11 0
-15 5 -12 15 4 8 2 17 -3 20 -6 4 -10 1 -10 -6 0 -7 -10 -9 -24 -7 -13 3 -32
-1 -42 -9 -10 -7 -13 -13 -8 -13 6 0 17 6 24 13 12 10 13 10 3 -2 -8 -10 -7
-20 7 -45 10 -17 20 -44 24 -61 5 -29 5 -29 -5 -5 -38 88 -36 86 -122 111 -45
12 -83 23 -84 24 -4 2 26 172 41 231 23 91 52 164 128 324 44 92 77 177 90
233 22 93 31 99 63 37z m250 -115 c-8 -87 -21 -162 -42 -242 l-17 -61 -13 34
c-7 19 -20 51 -28 72 -8 20 -14 59 -15 85 0 35 -3 46 -12 41 -15 -9 23 54 76
127 37 50 42 53 49 35 5 -12 6 -52 2 -91z m1453 60 c4 -4 8 -49 11 -107 1 -46
21 -51 21 -5 0 45 12 58 49 55 l32 -2 -2 -115 c-1 -113 6 -143 26 -100 6 13
31 30 60 41 28 10 73 30 102 43 28 14 54 25 57 25 9 0 7 -183 -2 -196 -4 -6
-44 -28 -89 -49 -124 -57 -113 -64 59 -43 54 6 100 9 104 5 4 -3 1 -49 -6
-101 l-12 -94 -57 -6 c-86 -10 -265 -47 -275 -57 -12 -11 0 -14 107 -30 48 -7
90 -16 93 -20 2 -5 -3 -47 -13 -95 -15 -71 -22 -88 -40 -95 -12 -4 -89 -6
-170 -3 -116 5 -181 1 -298 -14 -82 -11 -151 -19 -153 -17 -5 5 78 123 189
272 109 145 146 203 130 203 -5 0 -22 -17 -37 -37 -98 -133 -137 -182 -145
-178 -4 3 -45 -37 -90 -90 -82 -95 -106 -117 -75 -70 16 24 16 25 -4 25 -11 0
-20 5 -20 10 0 6 -9 10 -20 10 -19 0 -19 0 0 43 16 35 17 43 5 45 -19 4 -19
21 0 58 23 47 19 90 -24 257 l-42 159 67 75 67 75 18 -24 c10 -12 24 -34 31
-48 7 -14 29 -50 48 -80 20 -31 39 -63 43 -73 3 -9 10 -17 15 -17 15 0 21 48
28 209 l7 150 61 9 c52 8 134 6 144 -3z m-684 -410 c14 -14 21 -25 16 -25 -5
0 -12 5 -15 10 -11 17 -20 11 -59 -41 l-38 -51 24 -26 c21 -24 20 -24 -14 3
-20 17 -36 34 -35 38 2 7 90 117 94 117 1 0 13 -11 27 -25z m-847 -27 c-3 -8
-6 -5 -6 6 -1 11 2 17 5 13 3 -3 4 -12 1 -19z m-13 -67 c-4 -23 -9 -40 -11
-37 -3 3 -2 23 2 46 4 23 9 39 11 37 3 -2 2 -23 -2 -46z m1001 -32 c11 -13 -1
-6 -27 15 -27 21 -48 40 -48 43 0 8 54 -34 75 -58z m-1018 -61 c-3 -7 -5 -2
-5 12 0 14 2 19 5 13 2 -7 2 -19 0 -25z m840 -38 c38 -38 67 -70 64 -70 -4 0
-83 63 -115 92 -11 10 -16 18 -12 18 5 0 3 7 -4 15 -7 8 -10 15 -7 15 3 0 37
-31 74 -70z m263 37 c13 -5 13 -6 -1 -6 -9 -1 -24 9 -35 22 -19 22 -19 22 1 6
11 -9 27 -19 35 -22z m-364 -19 c12 -15 13 -18 3 -10 -28 21 -40 -6 -30 -66 7
-47 6 -51 -12 -49 -23 2 -49 -33 -30 -40 10 -3 10 -10 2 -25 -10 -18 -5 -26
32 -60 24 -21 39 -38 33 -36 -6 2 -41 30 -77 64 l-66 61 21 39 c35 66 87 144
96 144 5 0 17 -10 28 -22z m219 -86 c70 -78 50 -69 -25 12 -36 38 -55 63 -44
55 12 -8 43 -38 69 -67z m-967 36 c0 -30 -1 -31 -9 -10 -5 13 -7 28 -3 33 9
15 11 11 12 -23z m917 -71 c26 -24 -54 25 -85 53 -32 28 -30 28 20 -6 30 -21
60 -42 65 -47z m-2020 -74 c38 -82 76 -159 86 -173 9 -14 20 -35 23 -47 4 -13
14 -23 22 -23 17 0 17 -4 0 56 -8 27 -18 72 -21 99 -4 28 -13 76 -22 109 -19
76 -14 88 34 81 21 -2 58 -7 83 -9 25 -2 53 -8 63 -11 10 -4 43 -59 74 -124
31 -64 65 -128 75 -144 11 -15 30 -53 43 -84 33 -81 48 -82 41 -2 -3 35 -8
105 -12 154 -3 50 -7 107 -10 128 -4 36 -3 37 23 32 47 -9 174 -43 180 -48 3
-3 10 -29 16 -58 16 -71 37 -77 26 -7 -5 28 -6 54 -4 56 12 13 71 -16 82 -40
25 -50 84 -284 86 -335 1 -34 5 -53 13 -53 17 0 21 19 29 130 6 92 22 200 30
200 3 0 20 -7 39 -17 34 -16 36 -20 60 -122 33 -144 39 -179 28 -161 -6 8 -13
34 -17 58 -4 23 -10 42 -14 42 -4 0 -17 -14 -30 -31 -21 -28 -24 -29 -40 -15
-16 15 -19 15 -35 -3 -11 -12 -16 -31 -14 -52 2 -19 -1 -34 -7 -35 -5 0 -23
-6 -38 -12 -16 -7 -30 -12 -31 -12 -2 0 -27 -24 -56 -52 -54 -56 -55 -59 -34
-138 5 -17 3 -22 -3 -15 -12 11 -39 147 -49 243 -4 41 -10 60 -16 54 -10 -10
6 -236 19 -268 4 -10 -11 -7 -48 11 -30 14 -60 25 -66 25 -14 0 -37 41 -47 83
-4 15 -11 25 -17 22 -5 -4 -7 -16 -4 -28 18 -62 18 -59 -3 -48 -25 13 -32 14
-32 2 0 -5 10 -13 23 -16 40 -12 247 -117 247 -126 0 -5 6 -6 13 -4 14 6 122
-54 113 -62 -3 -4 11 -17 32 -29 20 -13 33 -23 27 -24 -21 0 -76 41 -69 51 4
7 1 10 -7 6 -8 -2 -43 10 -79 29 -200 102 -386 180 -565 239 -232 77 -332 105
-360 104 -20 0 51 -26 405 -144 112 -38 221 -83 305 -126 172 -89 242 -129
229 -129 -6 0 -39 -18 -74 -41 -80 -51 -88 -46 -10 7 l59 40 -65 39 c-54 31
-68 35 -75 24 -5 -8 -9 -18 -9 -22 0 -5 -4 -5 -10 -2 -9 5 -14 -6 -12 -26 1
-3 -17 -25 -39 -48 -21 -24 -39 -47 -39 -52 0 -5 -6 -6 -13 -3 -8 3 -36 -13
-63 -36 -27 -22 -68 -52 -90 -65 l-41 -24 -37 19 c-21 10 -59 24 -87 31 -27 7
-49 15 -49 18 0 3 25 33 55 65 49 53 64 76 50 76 -6 0 -134 -90 -187 -132
l-38 -30 -32 20 c-18 11 -44 23 -58 27 -14 4 -53 21 -88 38 l-63 30 72 69 c40
38 70 71 67 73 -3 3 -48 -20 -101 -50 -52 -30 -99 -55 -103 -55 -4 0 -29 20
-55 45 l-48 45 27 17 c61 39 202 146 202 154 0 13 -5 11 -43 -11 -18 -11 -58
-28 -88 -39 -30 -10 -79 -28 -109 -39 -49 -19 -56 -20 -65 -6 -5 9 -24 35 -41
58 -16 22 -42 62 -57 89 l-28 47 23 9 c13 4 51 14 86 22 34 7 62 17 62 21 0 4
-28 22 -62 39 -95 47 -96 49 -86 117 13 85 10 83 80 50 146 -70 208 -96 212
-90 2 4 -12 32 -33 62 -20 30 -56 90 -79 132 l-42 78 36 15 c65 27 66 25 124
-94 22 -45 44 -81 50 -81 18 0 11 26 -29 106 -47 94 -92 196 -89 199 4 3 169
22 209 24 l36 1 68 -147z m1568 138 c14 -2 -4 -45 -28 -67 -12 -11 -30 -19
-39 -18 -9 1 -15 -3 -14 -10 2 -6 0 -11 -3 -11 -3 0 -12 -5 -20 -11 -20 -16
-51 -26 -44 -14 3 6 13 10 21 10 8 0 13 4 10 8 -3 5 11 22 30 37 25 20 32 30
22 36 -16 10 20 48 42 43 8 -1 19 -3 23 -3z m147 -31 c-6 -11 -13 -20 -16 -20
-2 0 0 9 6 20 6 11 13 20 16 20 2 0 0 -9 -6 -20z m-27 -45 c-3 -9 -8 -14 -10
-11 -3 3 -2 9 2 15 9 16 15 13 8 -4z m625 -132 c-41 -59 -80 -108 -86 -109 -7
-1 -8 0 -2 3 5 2 8 8 6 12 -3 4 9 23 26 42 17 18 47 56 66 84 43 62 53 75 59
75 2 0 -29 -48 -69 -107z m-602 66 c19 -22 19 -22 -3 -10 -13 6 -23 16 -23 21
0 15 5 12 26 -11z m175 -2 c-10 -9 -11 -8 -5 6 3 10 9 15 12 12 3 -3 0 -11 -7
-18z m-1016 3 c-3 -5 -11 -10 -16 -10 -6 0 -7 5 -4 10 3 6 11 10 16 10 6 0 7
-4 4 -10z m120 -80 c17 -11 25 -20 18 -20 -6 0 -14 4 -17 9 -3 5 -15 11 -27
14 -16 4 -24 -1 -34 -26 -8 -18 -14 -27 -15 -20 0 20 23 63 34 63 6 0 25 -9
41 -20z m806 3 c13 -17 13 -17 -6 -3 -11 8 -22 16 -24 17 -2 2 0 3 6 3 6 0 17
-8 24 -17z m-41 -19 c24 -13 23 -13 -22 -14 -42 0 -48 3 -48 21 0 22 19 20 70
-7z m1496 -12 c30 -40 141 -282 129 -282 -1 0 -19 14 -40 30 -60 48 -55 25 8
-35 36 -34 68 -78 88 -119 39 -80 58 -88 24 -11 -27 59 -19 70 21 29 l26 -25
-3 -173 c-3 -133 -1 -177 9 -189 15 -17 102 -50 122 -45 15 4 45 -46 54 -88 8
-36 -30 -107 -45 -83 -5 8 -9 21 -9 29 0 9 -7 26 -16 39 l-16 23 -32 -30 c-42
-40 -108 -72 -149 -72 -39 0 -118 34 -205 87 l-57 35 -155 -6 c-85 -3 -177 -9
-205 -12 -63 -7 -292 -53 -314 -63 -98 -46 -221 -139 -221 -169 0 -8 27 11 62
43 l62 58 16 -24 c30 -47 103 -119 120 -119 24 0 51 60 64 142 10 68 11 68 50
79 77 21 154 29 331 35 l180 7 117 -62 c123 -65 154 -71 215 -46 19 8 37 15
39 15 12 0 22 -75 13 -98 -27 -71 -202 -269 -293 -332 -155 -106 -341 -181
-521 -210 -106 -17 -307 -15 -395 4 -99 21 -168 43 -197 61 -13 9 -23 11 -23
5 0 -25 80 -61 220 -100 33 -9 32 -9 -10 -3 -42 5 -103 22 -142 38 -16 6 -18
1 -18 -43 0 -44 11 -84 40 -147 20 -44 50 -126 49 -138 0 -7 -21 40 -46 103
-44 112 -94 200 -113 200 -12 0 -13 -17 -1 -24 17 -11 110 -243 130 -326 23
-97 58 -345 67 -470 6 -78 4 -89 -18 -131 l-25 -47 -34 33 c-54 53 -74 54
-120 5 -24 -25 -39 -50 -39 -65 0 -14 -4 -25 -10 -25 -5 0 -10 4 -10 10 0 17
-62 80 -79 80 -23 0 -55 -31 -71 -70 -13 -31 -15 -32 -57 -27 -55 6 -81 29
-149 134 -49 76 -139 258 -170 347 -27 74 -75 292 -89 401 -2 22 -9 63 -13 92
-5 28 -7 65 -4 82 2 18 0 31 -6 31 -12 0 -27 -118 -19 -157 60 -323 98 -466
153 -575 14 -28 20 -49 14 -53 -12 -7 -175 47 -245 82 -124 61 -211 122 -310
215 -58 55 -105 97 -105 92 0 -7 67 -94 81 -104 3 -3 33 -28 65 -57 33 -28 70
-60 84 -71 l25 -20 -37 -54 c-21 -29 -50 -85 -66 -123 -16 -39 -34 -79 -40
-90 -7 -11 -16 -32 -22 -47 -14 -41 -46 -36 -87 12 -19 22 -43 40 -53 40 -23
0 -57 -41 -65 -80 -5 -23 -12 -30 -30 -30 -18 0 -26 8 -35 34 -6 18 -20 42
-31 52 -21 19 -21 18 -45 -11 -13 -17 -24 -36 -24 -42 0 -16 -86 -18 -125 -3
-14 5 -30 22 -36 37 -12 31 -25 314 -15 338 5 14 13 10 51 -23 52 -46 90 -57
122 -36 33 21 112 105 129 137 17 32 6 88 -24 128 -10 13 -35 56 -56 94 -44
81 -58 95 -102 95 l-32 0 14 43 c7 23 21 65 29 92 9 28 25 69 36 93 10 23 19
48 19 54 0 6 33 61 74 122 52 77 92 125 133 157 60 48 130 89 118 70 -4 -8 5
-10 32 -7 21 3 45 1 52 -4 10 -6 19 -3 28 8 12 16 -6 -37 -42 -124 -8 -20 -15
-47 -15 -60 0 -13 -6 -27 -14 -31 -13 -7 -36 -72 -36 -100 0 -18 25 -16 44 2
13 14 18 10 47 -31 l32 -47 52 6 c55 6 141 44 165 73 10 11 14 36 12 78 -2 33
6 104 16 156 11 52 23 122 27 155 l6 61 -45 25 -46 25 58 41 c74 52 240 210
276 262 16 23 33 41 39 41 6 0 -1 -13 -16 -28 -32 -33 -34 -42 -8 -42 12 0 22
9 25 23 6 27 -3 -112 -11 -168 -4 -28 -2 -37 5 -30 32 30 41 301 16 458 -22
139 -17 408 8 433 36 36 353 20 498 -24 36 -11 74 -22 86 -25 11 -2 79 7 150
20 155 29 364 40 364 19 0 -7 42 -42 93 -77 90 -62 198 -145 286 -221 52 -45
78 -48 91 -12 11 28 3 148 -12 176 -6 14 -5 16 7 12 8 -4 15 -2 15 4 0 12
-113 71 -208 108 -86 32 -86 32 68 69 101 25 156 24 176 -3z m-1359 2 c-3 -3
-12 -4 -19 -1 -8 3 -5 6 6 6 11 1 17 -2 13 -5z m225 -26 c33 -10 41 -9 48 2 5
8 12 11 16 7 4 -4 1 -13 -7 -20 -11 -11 -26 -10 -79 4 -36 10 -54 18 -41 18
13 1 41 -4 63 -11z m-1205 -40 c-3 -8 -6 -5 -6 6 -1 11 2 17 5 13 3 -3 4 -12
1 -19z m393 -67 c55 -40 60 -47 58 -80 -1 -35 -1 -35 -5 -5 -2 18 -12 39 -22
48 -16 15 -19 15 -36 -4 -10 -11 -23 -20 -28 -20 -6 0 -7 3 -4 7 4 3 2 12 -5
20 -9 12 -15 10 -33 -13 -15 -18 -24 -24 -29 -16 -4 7 -2 12 4 12 6 0 9 4 6 9
-3 4 -17 6 -31 4 -19 -4 -26 -13 -30 -42 -4 -20 -10 -52 -15 -71 -18 -77 -10
17 12 127 l21 113 38 -23 c21 -12 66 -42 99 -66z m1481 62 c13 -16 12 -17 -3
-4 -17 13 -22 21 -14 21 2 0 10 -8 17 -17z m107 0 c-10 -2 -26 -2 -35 0 -10 3
-2 5 17 5 19 0 27 -2 18 -5z m-1771 -50 c-3 -10 -5 -4 -5 12 0 17 2 24 5 18 2
-7 2 -21 0 -30z m-220 -45 c-3 -7 -5 -2 -5 12 0 14 2 19 5 13 2 -7 2 -19 0
-25z m448 -185 c-10 -92 -16 -72 -8 23 4 43 9 70 11 60 2 -10 1 -48 -3 -83z
m153 -108 l63 -74 -32 -50 c-18 -28 -35 -48 -38 -46 -2 3 10 25 28 50 39 55
32 79 -12 38 -17 -15 -25 -20 -18 -11 16 22 10 32 -31 48 -18 7 -40 20 -49 27
-15 13 -19 11 -33 -9 -9 -12 -16 -34 -16 -49 0 -33 -21 -54 -38 -37 -14 14
-15 56 -2 113 7 31 8 23 3 -32 -4 -63 -3 -73 11 -73 11 0 16 9 16 27 0 24 67
152 80 153 3 0 34 -34 68 -75z m-701 -87 c-3 -7 -5 -2 -5 12 0 14 2 19 5 13 2
-7 2 -19 0 -25z m10 -40 c-3 -8 -6 -5 -6 6 -1 11 2 17 5 13 3 -3 4 -12 1 -19z
m2756 -45 c4 -18 2 -35 -3 -38 -6 -3 -11 4 -11 17 -1 13 -3 33 -4 46 -3 33 11
13 18 -25z m-2594 -38 c60 -36 113 -65 116 -65 4 0 4 18 0 40 -4 26 -3 40 4
40 7 0 11 -22 11 -55 l0 -56 -57 39 c-32 21 -88 56 -125 76 -61 34 -78 46 -63
46 3 0 54 -29 114 -65z m193 -122 c12 -15 11 -15 -8 -5 -17 9 -22 24 -28 73
-10 104 -4 129 9 36 7 -48 19 -95 27 -104z m448 168 c0 -10 -18 -43 -40 -72
-51 -68 -189 -209 -204 -209 -6 0 -38 16 -71 36 -37 21 -50 32 -33 28 23 -5
28 -2 34 21 4 18 11 24 21 20 11 -4 13 -1 9 12 -6 14 -4 15 4 6 9 -8 7 -18
-11 -42 -23 -32 -21 -55 2 -26 8 9 25 27 37 40 13 13 39 45 58 72 23 32 34 42
34 29 0 -14 6 -17 25 -14 15 3 29 0 33 -8 6 -10 19 0 47 36 22 28 41 56 41 63
3 24 4 27 9 27 3 0 5 -9 5 -19z m-55 -16 c-16 -8 -37 -14 -45 -14 -8 0 1 7 20
14 46 18 64 17 25 0z m2064 -133 c1 -23 -3 -32 -11 -30 -9 3 -13 28 -14 74
l-1 69 13 -40 c7 -22 13 -55 13 -73z m-2784 44 c-33 -22 -141 -80 -132 -71 11
13 130 83 142 84 5 1 1 -5 -10 -13z m60 -16 c-3 -5 -16 -15 -28 -21 l-22 -12
20 21 c21 22 41 30 30 12z m2666 -15 c5 4 9 -1 9 -9 0 -20 -10 -20 -35 -3 -11
9 -15 19 -10 27 6 10 10 9 17 -4 5 -9 13 -14 19 -11z m-2600 -26 l24 -20 -27
17 c-16 9 -35 14 -43 10 -9 -3 -13 -2 -10 4 10 16 31 12 56 -11z m-141 -2 c0
-2 -10 -12 -22 -23 l-23 -19 19 23 c18 21 26 27 26 19z m-350 -93 l-52 -68 34
-18 c36 -21 32 -20 -23 1 l-37 14 59 70 c33 39 59 75 60 81 0 7 2 6 5 -1 3 -7
-18 -42 -46 -79z m608 19 c17 -13 32 -28 32 -33 0 -5 -12 2 -27 16 -14 13 -41
34 -60 45 -18 11 -33 23 -33 26 0 6 40 -19 88 -54z m-258 33 c0 -2 -8 -10 -17
-17 -16 -13 -17 -12 -4 4 13 16 21 21 21 13z m-1 -82 c-7 -8 -26 -22 -43 -31
-37 -18 -33 -13 14 21 42 29 46 31 29 10z m2 -51 c-27 -32 -49 -59 -47 -60 6
-6 66 29 66 37 0 5 9 14 21 20 17 10 21 8 26 -9 7 -27 17 -26 37 2 l16 22 -6
-27 c-4 -19 -2 -28 6 -28 7 0 10 -7 6 -15 -4 -11 4 -9 24 7 16 12 32 20 34 17
4 -4 -133 -110 -180 -139 -18 -11 -27 -8 -78 26 l-58 38 89 83 c48 46 89 83
91 83 2 0 -19 -26 -47 -57z m2793 -42 c1 -39 -4 -55 -21 -73 -28 -28 -35 -21
-41 42 -4 43 -1 55 19 76 30 32 42 19 43 -45z m-1048 -13 c-20 -127 -40 -148
-94 -96 -37 36 -67 86 -57 96 12 13 100 40 129 41 28 1 28 0 22 -41z m-2008 2
c26 -16 37 -18 53 -9 12 6 23 9 25 6 2 -2 -6 -9 -19 -16 -20 -10 -29 -9 -67
13 -25 14 -40 26 -35 26 6 0 25 -9 43 -20z m458 -29 c-9 -10 -13 -21 -9 -26 5
-4 3 -5 -3 -2 -13 8 -27 -20 -18 -34 3 -5 11 -9 18 -9 24 0 110 42 159 77 27
19 51 32 54 30 6 -6 -38 -36 -124 -85 -66 -37 -75 -40 -107 -30 -31 10 -34 13
-24 32 17 33 63 83 67 73 1 -4 -4 -16 -13 -26z m-474 -28 c-9 -4 -7 -13 8 -38
31 -51 47 -258 25 -325 -20 -62 -45 -84 -84 -77 -25 5 -30 2 -39 -21 -6 -15
-13 -64 -15 -110 -2 -45 -7 -85 -10 -89 -6 -5 -1 161 8 292 2 33 11 77 19 97
9 20 12 39 7 42 -5 3 -32 -51 -61 -122 -29 -70 -63 -150 -76 -179 -13 -28 -24
-57 -24 -63 0 -6 -4 -9 -9 -6 -10 7 -24 -22 -16 -34 7 -12 -61 -41 -79 -34 -9
3 -29 2 -44 -4 -15 -6 -40 -13 -55 -17 l-29 -6 7 43 c4 23 16 66 26 97 20 57
24 91 12 91 -5 -1 -30 -37 -56 -81 -27 -44 -55 -83 -64 -86 -14 -6 -93 15 -93
25 0 3 35 53 79 111 104 142 133 185 122 189 -4 1 -24 -12 -43 -30 -19 -18
-71 -56 -117 -85 l-82 -52 -20 46 c-24 56 -27 52 111 140 172 109 537 291 585
291 11 0 14 -2 7 -5z m546 -73 c-7 -10 -14 -17 -16 -15 -3 2 -19 -3 -36 -12
-40 -20 -26 -6 22 23 20 12 38 23 40 23 1 1 -3 -8 -10 -19z m2061 -437 c7 -21
23 -65 36 -98 13 -33 28 -84 33 -113 8 -47 8 -52 -7 -46 -41 18 -143 54 -151
54 -21 0 -40 -50 -49 -130 -8 -71 -7 -87 7 -109 30 -47 129 -176 151 -195 21
-19 22 -19 66 12 l45 32 1 -48 c2 -74 -1 -187 -6 -213 -23 -121 -26 -125 -71
-82 -35 32 -37 33 -56 17 -10 -10 -28 -33 -40 -52 l-21 -33 -31 30 c-42 41
-67 39 -103 -5 l-29 -36 -56 11 c-33 7 -63 21 -75 34 -35 39 -169 295 -209
400 -45 117 -21 82 30 -44 27 -66 52 -122 57 -125 5 -3 6 2 3 10 -9 24 12 19
58 -14 22 -16 44 -30 47 -30 3 0 25 16 49 36 37 32 42 42 42 78 0 59 -26 135
-54 161 -14 12 -47 28 -75 35 -28 7 -51 16 -51 20 0 5 -14 11 -31 15 -26 6
-36 2 -65 -26 -18 -18 -36 -30 -39 -27 -3 3 10 17 28 31 19 14 65 56 102 94
37 37 65 64 62 58 -3 -5 24 -30 59 -54 62 -43 64 -43 89 -27 14 9 25 13 25 9
0 -5 16 24 34 62 25 54 54 91 120 157 l86 85 -16 47 c-9 25 -17 46 -19 46 -1
0 -19 -7 -40 -16 -20 -8 -39 -13 -42 -10 -6 6 55 34 77 35 10 1 21 -14 29 -36z
m-167 -28 c-137 -62 -267 -85 -472 -83 l-135 1 170 8 c193 8 239 15 374 63
114 40 136 44 63 11z m-241 -222 c-78 -97 -194 -197 -316 -274 -50 -31 -145
-72 -152 -65 -3 3 -7 24 -8 48 -1 24 -1 33 2 21 2 -13 6 -23 9 -23 9 0 89 43
128 69 27 18 41 22 44 13 7 -22 34 -13 88 29 51 39 53 42 39 62 -8 12 -15 36
-15 54 0 56 68 82 119 46 24 -16 25 -15 54 20 16 21 31 37 34 37 2 0 -9 -17
-26 -37z m33 -8 c-9 -14 -18 -25 -21 -25 -5 0 5 18 20 38 17 22 18 13 1 -13z
m-516 -210 c0 -16 -2 -15 -8 5 -11 34 -11 60 0 35 5 -11 8 -29 8 -40z m971
-522 c28 -32 51 -61 51 -65 0 -14 -45 -8 -108 13 -34 11 -62 23 -62 26 0 18
47 83 61 83 4 0 30 -26 58 -57z m105 22 c22 -19 37 -36 35 -38 -2 -2 -25 -2
-51 1 -49 4 -58 15 -42 56 8 22 13 20 58 -19z m-282 -32 c59 -58 48 -75 -32
-53 -20 5 -44 16 -55 24 -18 13 -18 14 8 40 14 14 29 26 34 26 4 0 24 -17 45
-37z m-2182 -34 c32 -61 28 -72 -22 -64 -50 8 -78 21 -78 36 0 12 31 61 44 71
16 11 36 -4 56 -43z m148 16 c16 -35 16 -35 -18 -35 -16 0 -30 2 -30 5 0 11
24 55 30 55 4 0 12 -11 18 -25z m-345 -45 c3 -14 2 -31 -2 -39 -7 -11 -13 -10
-35 4 -30 20 -33 41 -10 73 15 22 17 23 29 5 6 -10 15 -29 18 -43z m1662 3
c33 -49 33 -67 0 -59 -77 19 -88 33 -59 74 21 30 29 28 59 -15z m-148 0 c28
-31 67 -102 60 -110 -3 -2 -45 4 -93 14 -60 12 -90 23 -92 33 -4 22 56 90 79
90 11 0 31 -12 46 -27z m-199 -53 c12 -24 22 -53 22 -63 0 -17 -5 -18 -37 -12
-57 10 -85 32 -77 58 8 28 45 68 58 64 6 -2 21 -23 34 -47z"/>
<path d="M2497 4090 c6 -7 9 -19 6 -26 -5 -13 8 -19 30 -15 4 1 17 -3 27 -9
37 -20 20 -1 -27 31 -27 18 -43 26 -36 19z"/>
<path d="M2530 4024 c0 -6 -11 -16 -25 -22 -15 -7 -22 -17 -19 -25 3 -8 -2
-17 -10 -20 -18 -7 -21 -33 -6 -42 6 -3 13 2 17 12 13 37 47 62 73 56 22 -5
23 -4 10 8 -8 8 -21 20 -27 28 -7 8 -13 10 -13 5z"/>
<path d="M2614 3975 c-10 -8 -14 -14 -9 -15 15 0 40 18 34 24 -3 3 -14 -1 -25
-9z"/>
<path d="M2430 3861 c0 -6 5 -13 10 -16 6 -3 10 1 10 9 0 9 -4 16 -10 16 -5 0
-10 -4 -10 -9z"/>
<path d="M2576 3843 c-6 -14 -5 -15 5 -6 7 7 10 15 7 18 -3 3 -9 -2 -12 -12z"/>
<path d="M2606 3845 c-8 -9 -13 -22 -10 -30 4 -8 -9 -22 -35 -37 -23 -13 -41
-29 -41 -36 0 -7 -4 -10 -10 -7 -5 3 -10 2 -10 -4 0 -19 -61 -41 -82 -30 -33
17 -70 7 -89 -26 -21 -36 -24 -59 -6 -52 6 2 18 -2 25 -9 10 -11 7 -16 -17
-28 -16 -9 -32 -21 -35 -28 -3 -7 -5 2 -3 20 4 38 -2 40 -32 8 l-22 -24 24
-25 25 -24 22 21 c16 15 24 17 27 9 5 -15 33 -18 33 -4 0 13 -26 32 -33 24 -4
-3 -7 -2 -7 4 0 5 11 16 25 23 13 7 22 17 19 21 -2 4 0 10 5 13 4 3 11 19 14
36 4 16 11 30 17 30 6 0 8 -5 4 -12 -5 -8 -2 -9 9 -5 23 9 31 -10 12 -30 -13
-13 -14 -18 -3 -24 11 -7 10 -11 -2 -19 -13 -8 -13 -11 -1 -19 11 -7 9 -14
-10 -34 -13 -13 -30 -34 -37 -46 -12 -21 -11 -21 7 -12 11 6 23 16 26 21 4 6
11 8 16 5 5 -4 9 -1 9 5 0 6 4 9 9 6 14 -9 22 23 15 60 -4 22 -2 34 5 34 6 0
11 -10 11 -22 1 -18 2 -20 9 -8 5 8 7 26 6 40 -2 14 -4 28 -4 32 -1 4 -8 5
-16 2 -8 -4 -15 -3 -15 1 0 13 34 34 53 35 10 0 16 4 12 9 -3 5 13 20 35 34
22 13 37 28 33 33 -5 5 6 -3 23 -18 16 -16 35 -28 41 -28 14 0 43 -28 43 -41
0 -6 -4 -7 -10 -4 -5 3 -10 -2 -10 -12 1 -14 8 -10 30 17 37 42 37 50 3 50
-16 0 -41 11 -56 24 -16 14 -34 27 -40 29 -7 2 -9 8 -5 12 4 4 22 -4 40 -18
50 -36 59 -40 52 -23 -3 9 -24 26 -45 38 -45 25 -50 37 -14 30 27 -5 35 12 9
22 -23 9 -31 8 -48 -9z m114 -129 c0 -3 -4 -8 -10 -11 -5 -3 -10 -1 -10 4 0 6
5 11 10 11 6 0 10 -2 10 -4z m-440 -151 c0 -8 -4 -15 -9 -15 -13 0 -22 16 -14
24 11 11 23 6 23 -9z"/>
<path d="M2490 3815 c-19 -22 -8 -25 13 -3 9 10 13 18 8 18 -5 0 -14 -7 -21
-15z"/>
<path d="M2445 3790 c-4 -6 -11 -8 -16 -5 -5 4 -9 2 -9 -3 0 -6 -8 -9 -17 -8
-30 2 -20 -27 10 -31 15 -2 27 1 27 7 0 5 7 10 15 10 8 0 15 9 15 20 0 21 -15
27 -25 10z"/>
<path d="M2526 3783 c-6 -14 -5 -15 5 -6 7 7 10 15 7 18 -3 3 -9 -2 -12 -12z"/>
<path d="M2624 3685 c-18 -35 -55 -48 -69 -25 -4 6 -11 8 -16 5 -5 -4 -9 -1
-9 4 0 16 -17 13 -24 -4 -3 -9 4 -21 19 -31 23 -15 28 -15 60 0 19 9 35 21 35
26 0 6 7 10 15 10 9 0 15 9 15 25 0 33 -3 32 -26 -10z"/>
<path d="M2510 3595 c0 -8 2 -15 4 -15 2 0 6 7 10 15 3 8 1 15 -4 15 -6 0 -10
-7 -10 -15z"/>
<path d="M2330 3505 c-14 -16 -10 -18 14 -9 9 3 16 10 16 15 0 14 -16 11 -30
-6z"/>
<path d="M2120 3443 c0 -5 5 -15 10 -23 8 -12 10 -11 10 8 0 12 -4 22 -10 22
-5 0 -10 -3 -10 -7z"/>
<path d="M2172 3438 c-16 -16 -15 -35 3 -42 8 -3 15 -14 15 -25 0 -10 9 -21
20 -24 11 -3 18 -1 15 4 -3 4 7 15 23 23 32 17 49 56 29 68 -17 11 -47 10 -47
-2 0 -7 -6 -7 -19 0 -24 13 -24 13 -39 -2z m81 -19 c9 1 17 -3 17 -8 0 -6 -6
-11 -12 -12 -7 0 -26 -2 -41 -4 -24 -3 -27 -2 -16 11 9 12 9 14 -2 11 -8 -2
-11 -2 -6 0 4 3 4 9 1 15 -4 5 4 4 17 -3 13 -7 32 -12 42 -10z"/>
<path d="M2060 3410 c0 -5 -6 -7 -14 -4 -17 6 -31 -12 -16 -21 20 -13 9 -33
-29 -53 -21 -11 -42 -18 -45 -15 -3 4 -6 -6 -6 -21 l0 -27 29 20 c16 12 43 24
60 27 17 4 31 13 31 21 0 8 -5 11 -12 8 -7 -4 -5 0 5 8 12 10 15 17 7 22 -6 4
-8 15 -5 26 4 10 4 19 1 19 -3 0 -6 -4 -6 -10z"/>
<path d="M2090 3380 c0 -5 7 -10 15 -10 8 0 15 5 15 10 0 6 -7 10 -15 10 -8 0
-15 -4 -15 -10z"/>
<path d="M2120 3341 c0 -8 -7 -10 -21 -6 -15 5 -19 4 -15 -4 4 -6 13 -11 21
-11 16 0 30 18 21 27 -3 4 -6 1 -6 -6z"/>
<path d="M1510 3521 c0 -5 7 -15 17 -22 15 -13 15 -12 4 9 -12 23 -21 28 -21
13z"/>
<path d="M1558 3443 c-10 -3 -18 -8 -18 -13 0 -5 -11 -7 -25 -4 -18 3 -25 0
-25 -12 0 -10 5 -14 15 -10 8 3 15 2 15 -3 0 -4 14 -6 30 -3 17 2 38 -2 47 -9
13 -11 15 -11 9 -1 -4 7 -2 19 4 27 7 8 10 16 6 16 -3 1 -9 2 -13 3 -5 1 -12
4 -18 7 -5 3 -18 4 -27 2z"/>
<path d="M1615 3400 c3 -5 8 -10 11 -10 2 0 4 5 4 10 0 6 -5 10 -11 10 -5 0
-7 -4 -4 -10z"/>
<path d="M1666 3395 c4 -8 11 -15 16 -15 6 0 5 6 -2 15 -7 8 -14 15 -16 15 -2
0 -1 -7 2 -15z"/>
<path d="M1727 3389 c7 -7 15 -10 18 -7 3 3 -2 9 -12 12 -14 6 -15 5 -6 -5z"/>
<path d="M1483 3363 c2 -24 9 -30 52 -45 64 -21 62 -21 60 0 -4 42 -16 60 -40
58 -14 0 -25 -4 -25 -7 0 -4 -7 -10 -15 -13 -11 -4 -15 0 -13 11 2 9 -2 18 -9
20 -8 3 -11 -6 -10 -24z m77 -23 c0 -5 -2 -10 -4 -10 -3 0 -8 5 -11 10 -3 6
-1 10 4 10 6 0 11 -4 11 -10z"/>
<path d="M1845 3300 c-3 -5 -1 -10 4 -10 6 0 11 5 11 10 0 6 -2 10 -4 10 -3 0
-8 -4 -11 -10z"/>
<path d="M1875 3270 c-3 -5 -1 -10 4 -10 6 0 11 5 11 10 0 6 -2 10 -4 10 -3 0
-8 -4 -11 -10z"/>
<path d="M1630 2536 c0 -3 14 -12 30 -21 17 -9 30 -13 30 -11 0 3 -13 12 -30
21 -16 9 -30 13 -30 11z"/>
<path d="M964 2482 c-27 -32 -33 -35 -47 -23 -14 11 -18 11 -23 -3 -3 -9 -10
-13 -15 -10 -5 3 -22 -8 -38 -23 -16 -16 -33 -27 -38 -26 -6 2 -16 -3 -23 -12
-7 -8 -8 -15 -3 -15 6 0 26 -11 45 -24 l35 -24 41 33 c28 22 38 35 31 42 -7 7
-5 12 5 16 8 3 18 2 21 -4 4 -5 33 9 66 32 47 34 61 39 73 30 13 -11 9 -20
-24 -64 -22 -28 -37 -53 -35 -55 7 -7 67 48 97 89 30 41 35 59 17 59 -5 0 -7
6 -3 13 5 7 1 7 -10 -2 -14 -12 -22 -12 -36 -3 -13 8 -21 8 -26 1 -3 -6 -13
-8 -21 -5 -8 3 -11 1 -8 -4 4 -6 -3 -8 -17 -6 -13 3 -27 5 -31 5 -5 1 -5 6 -2
11 13 21 -1 8 -31 -28z"/>
<path d="M763 2415 c-7 -8 -9 -16 -4 -19 5 -3 12 1 15 10 8 22 4 25 -11 9z"/>
<path d="M2344 3405 c-10 -8 -14 -15 -8 -15 6 0 17 7 24 15 16 19 9 19 -16 0z"/>
<path d="M2480 3082 c0 -4 4 -12 9 -17 6 -6 6 -41 0 -90 -9 -71 -9 -405 -1
-405 2 0 47 40 100 89 53 48 115 104 137 124 l39 35 -54 63 c-30 35 -90 97
-132 137 -71 67 -98 84 -98 64z"/>
<path d="M3685 2846 c-22 -6 -41 -18 -43 -26 -1 -8 38 -55 88 -105 101 -100
115 -102 104 -10 -9 76 -34 135 -61 146 -30 11 -37 11 -88 -5z"/>
<path d="M3470 2822 c0 -4 16 -17 35 -30 38 -24 89 -88 113 -142 14 -31 16
-32 20 -13 4 28 -16 67 -66 123 -35 39 -102 80 -102 62z"/>
<path d="M3076 2775 c-9 -9 -21 -35 -27 -58 -17 -60 -28 -180 -18 -191 5 -6 9
9 9 35 0 65 27 161 51 182 21 17 85 23 104 9 6 -4 10 -45 11 -92 0 -82 27
-232 46 -257 10 -13 -14 -25 -110 -57 -62 -21 -78 -13 -88 40 -3 19 -10 34
-14 34 -11 0 8 -71 26 -94 13 -19 16 -19 61 -4 189 65 236 79 326 98 72 14
107 26 119 40 10 12 23 18 32 14 23 -9 20 2 -13 49 -76 110 -242 214 -401 253
-72 18 -95 17 -114 -1z m161 -177 c-2 -13 -4 -3 -4 22 0 25 2 35 4 23 2 -13 2
-33 0 -45z m253 -122 l45 -14 -30 -7 c-16 -3 -52 -11 -80 -17 -27 -6 -69 -17
-93 -25 -65 -20 -70 -5 -13 33 44 30 53 33 71 22 16 -11 23 -10 37 5 9 9 17
17 18 17 0 0 20 -6 45 -14z"/>
<path d="M4250 2595 c0 -35 4 -54 10 -50 6 3 10 26 10 50 0 24 -4 47 -10 50
-6 4 -10 -15 -10 -50z"/>
<path d="M2372 2392 c-7 -13 -2 -24 19 -44 l29 -27 0 24 c0 14 -9 34 -20 45
-18 18 -20 18 -28 2z"/>
<path d="M4118 2339 c28 -44 52 -52 26 -9 -10 18 -26 36 -34 38 -10 4 -7 -5 8
-29z"/>
<path d="M2268 2292 c-64 -55 -84 -80 -53 -68 8 3 15 1 15 -5 0 -6 9 -8 19 -4
11 3 22 1 26 -5 5 -8 11 -8 21 1 11 9 18 8 32 -2 16 -13 16 -13 2 6 -8 11 -23
28 -32 38 -21 21 -14 41 12 34 20 -5 36 18 19 29 -6 4 -6 11 2 20 20 24 6 14
-63 -44z"/>
<path d="M4327 2344 c-10 -10 -9 -54 2 -54 12 0 22 43 13 52 -5 5 -11 5 -15 2z"/>
<path d="M2347 2269 c7 -7 15 -10 18 -7 3 3 -2 9 -12 12 -14 6 -15 5 -6 -5z"/>
<path d="M2111 2158 c-31 -20 -32 -22 -13 -29 11 -4 38 -27 60 -51 22 -24 56
-61 76 -83 l36 -40 36 40 c20 22 43 54 51 70 8 17 24 40 35 51 26 29 14 34
-52 25 -45 -6 -67 -3 -118 16 -75 28 -69 28 -111 1z"/>
<path d="M2150 1985 c0 -37 -12 -101 -26 -149 -5 -15 3 -12 40 13 25 18 46 36
46 40 0 5 -13 37 -30 72 l-29 64 -1 -40z"/>
<path d="M1657 1627 c-16 -25 -57 -137 -57 -157 0 -16 37 -12 84 10 67 30 71
39 42 107 -27 65 -45 76 -69 40z"/>
<path d="M2545 1427 c-9 -15 -17 -61 -21 -129 -7 -118 -6 -123 75 -231 61 -81
121 -106 194 -81 69 24 78 36 94 120 l14 77 -68 69 c-64 66 -139 125 -221 175
-46 28 -48 28 -67 0z"/>
<path d="M2095 1333 c-39 -33 -99 -81 -135 -107 -84 -62 -88 -69 -54 -109 32
-39 80 -66 117 -67 18 0 26 -4 21 -11 -4 -8 -1 -8 12 -1 11 6 21 10 24 9 15
-3 104 51 108 65 2 9 9 18 16 20 9 2 8 27 -5 103 -9 55 -21 113 -26 129 l-9
29 -69 -60z"/>
<path d="M1614 915 c-20 -30 -34 -60 -31 -67 3 -7 21 -21 40 -32 62 -32 116 0
102 63 -5 25 -56 91 -69 91 -3 0 -22 -25 -42 -55z"/>
<path d="M2146 948 c-11 -10 -25 -17 -30 -15 -15 5 -35 -24 -36 -50 0 -25 50
-56 117 -72 21 -5 47 -12 58 -16 15 -5 16 -4 6 3 -11 8 -10 14 10 34 24 23 24
24 8 71 -8 26 -18 44 -22 41 -4 -4 -13 -2 -20 4 -8 7 -17 9 -20 5 -4 -3 -7 -2
-7 3 0 17 -45 11 -64 -8z"/>
<path d="M2575 920 c-8 -16 -15 -55 -15 -89 0 -53 3 -63 27 -86 15 -14 34 -25
41 -25 17 0 90 50 121 84 l24 26 -35 32 c-28 27 -128 88 -144 88 -2 0 -10 -13
-19 -30z"/>
<path d="M2040 886 c0 -2 7 -7 16 -10 8 -3 12 -2 9 4 -6 10 -25 14 -25 6z"/>
<path d="M1245 728 c3 -13 7 -28 7 -34 1 -6 10 -9 20 -6 17 4 17 6 -3 33 -24
35 -34 37 -24 7z"/>
<path d="M1380 659 c0 -5 5 -7 10 -4 6 3 10 8 10 11 0 2 -4 4 -10 4 -5 0 -10
-5 -10 -11z"/>
<path d="M1727 568 c2 -5 10 -8 18 -8 8 0 16 3 18 8 3 4 -5 7 -18 7 -13 0 -21
-3 -18 -7z"/>
<path d="M3730 1085 c-15 -18 -27 -125 -20 -175 6 -41 22 -42 76 -7 55 36 61
58 31 109 -14 24 -36 53 -50 66 -21 20 -25 21 -37 7z"/>
</g>
</svg>
